<?xml  version="1.0" encoding="UTF-8"?>
<!DOCTYPE svg PUBLIC "-//W3C//DTD SVG 1.0//EN" "http://www.w3.org/TR/2001/REC-SVG-20010904/DTD/svg10.dtd" >
<svg xmlns="http://www.w3.org/2000/svg" >
<metadata>
<version>1.0</version>
<id><![CDATA[ITC Lubalin Graph W01 Demi]]></id>
<vendor>Monotype Imaging Inc.</vendor>
<credits>
<name>Fonts.com WebFonts</name>
<URL>http://webfonts.fonts.com</URL>
<role>Home of the Web fonts</role>
</credits>
<license>
<URL>http://webfonts.fonts.com/Legal</URL>
</license>
<copyright><![CDATA[Copyright © 1985, 1987, 1997, 1998, 2001 Adobe Systems Incorporated.  All Rights Reserved.]]></copyright>
<trademark><![CDATA[ITC Lubalin Graph is a trademark of International Typeface Corporation.]]></trademark>
<licensee>
<name></name>
</licensee>
</metadata>
<defs >
<font horiz-adv-x="582" id="33772b07-3175-4e1c-9aca-009627307668">
<font-face font-family="" panose-1="2 6 7 3 2 2 5 2 4 4" ascent="1017" descent="-280" units-per-em="1000" alphabetic="0">
</font-face>
<missing-glyph horiz-adv-x="0" />

<glyph unicode="&#xA;" />
<glyph unicode="&#xD;" horiz-adv-x="0" />
<glyph unicode=" " horiz-adv-x="300" />
<glyph unicode="!" horiz-adv-x="200" d="M163 0H37V141H163V0ZM163 214H37V714H163V214Z"  />
<glyph unicode="&quot;" horiz-adv-x="400" d="M256 427L230 714H356L329 427H256ZM62 427L36 714H162L135 427H62Z"  />
<glyph unicode="#" horiz-adv-x="580" d="M369 0H293L327 239H224L190 0H114L148 239H27V314H160L175 416H56V491H186L218 714H293L262 491H365L397 714H473L441 491H554V416H430L416 314H525V239H404L369 0ZM250 416L236 314H338L353 416H250Z"  />
<glyph unicode="$" horiz-adv-x="580" d="M182 212Q181 188 189 168T211 132T246 107T290 98Q332 98 361 124T391 194Q391 219 382 236T357 266T321 286T281 300Q245 311 205 324T134 360Q96 387 75 429T54 520Q54 558 67 592T105 653T161 697T231 720V825H335V709Q355 706 369 697T394 671V714H488V518H377Q375 558 349 583T281 609Q243 609 215 586T187 523Q187 500 195 484T217 458T248 440T286 428Q324 418 366 404T441 367Q483 338 505 296T527 202Q527 159 513 122T473 57T412 9T335 -17V-120H231V0L223 1Q201 8 190 15T164 41V0H63V212H182Z"  />
<glyph unicode="%" horiz-adv-x="860" d="M651 -11Q613 -11 581 3T524 41T487 99T473 169Q473 205 487 237T525 293T581 330T649 344Q686 344 718 331T775 293T814 237T828 168Q828 131 814 99T776 42T720 3T651 -11ZM652 93Q682 93 703 115T724 167Q724 197 703 219T651 241Q621 241 599 220T577 168Q577 137 598 115T652 93ZM210 374Q172 374 140 388T83 426T46 484T32 554Q32 590 46 622T84 677T140 715T208 729Q245 729 277 715T334 677T373 621T387 552Q387 515 374 483T336 426T280 388T210 374ZM210 478Q240 478 261 499T283 551Q283 582 262 603T209 625Q179 625 158 604T136 553Q136 521 157 500T210 478ZM219 0L541 714H639L318 0H219Z"  />
<glyph unicode="&amp;" horiz-adv-x="720" d="M591 -10L478 102Q437 46 385 16T263 -14Q219 -14 178 1T106 43T55 109T36 193Q36 230 48 259T80 313T126 358T182 396L175 403Q142 438 123 472T104 556Q104 595 118 627T158 683T216 720T288 733Q324 733 356 721T413 686T452 633T467 565Q467 536 458 511T434 465T397 425T353 394L468 281L538 433H686V322H615L553 196L675 73L591 -10ZM259 318Q241 309 225 298T196 273T175 242T167 202Q167 181 175 163T198 131T231 110T271 102Q317 102 344 126T392 187L259 318ZM282 462Q294 470 307 480T330 502T348 527T355 557Q355 586 337 607T289 628Q259 628 241 608T223 558Q223 529 238 509T273 470L282 462Z"  />
<glyph unicode="&apos;" horiz-adv-x="200" d="M62 427L36 714H162L135 427H62Z"  />
<glyph unicode="(" horiz-adv-x="360" d="M332 -133Q265 -109 211 -67T117 32T57 154T36 291Q36 361 57 427T117 550T210 649T332 714V565Q259 523 217 450T174 292Q174 251 185 211T216 134T266 69T332 19V-133Z"  />
<glyph unicode=")" horiz-adv-x="360" d="M36 714Q103 692 157 649T251 550T311 428T332 291Q332 220 311 154T251 32T158 -66T36 -133V19Q73 39 102 68T151 134T183 210T194 292Q194 377 152 449T36 565V714Z"  />
<glyph unicode="*" horiz-adv-x="360" d="M326 545L235 547L286 472L232 436L183 521L139 436L84 467L132 545L34 539V603L128 600L73 678L128 714L180 628L227 714L284 680L234 603L326 608V545Z"  />
<glyph unicode="+" horiz-adv-x="660" d="M284 404V612H376V404H584V312H376V104H284V312H76V404H284Z"  />
<glyph unicode="&#x2c;" horiz-adv-x="300" d="M87 0V141H213V-19Q213 -46 210 -69T189 -113Q171 -135 152 -139T106 -144H87V-76H100Q115 -76 123 -71T135 -56T140 -36T141 -13V0H87Z"  />
<glyph unicode="-" horiz-adv-x="320" d="M32 202V323H288V202H32Z"  />
<glyph unicode="." horiz-adv-x="300" d="M213 0H87V141H213V0Z"  />
<glyph unicode="/" horiz-adv-x="580" d="M36 -195L483 714H572L124 -195H36Z"  />
<glyph unicode="0" horiz-adv-x="580" d="M548 260Q548 202 535 158T481 70Q443 31 394 9T289 -14Q238 -14 192 5T108 60Q85 82 70 104T47 150T35 202T32 260V460Q32 518 44 562T98 650Q136 689 185 711T289 733Q340 733 387 714T471 660Q517 616 532 569T548 460V260ZM166 258Q166 230 169 205T189 156Q206 131 233 120T290 108Q322 108 350 121T395 163Q409 186 411 209T414 258V460Q414 488 411 513T390 562Q373 587 346 599T290 611Q258 611 230 597T185 555Q171 532 169 509T166 460V258Z"  />
<glyph unicode="1" horiz-adv-x="580" d="M371 114H455V0H155V114H239V600H134V714H371V114Z"  />
<glyph unicode="2" horiz-adv-x="580" d="M523 190V0H54V114L311 363Q325 377 340 391T368 422T389 458T397 498Q397 520 389 539T365 572T331 593T289 601Q264 601 244 592T209 566T187 527T180 481H51Q51 535 69 581T119 660T197 713T296 733Q344 733 386 715T460 665T510 591T528 499Q528 460 517 428T487 369T444 318T392 269L223 114H406V190H523Z"  />
<glyph unicode="3" horiz-adv-x="580" d="M177 206Q184 163 214 134T290 105Q314 105 334 114T371 138T396 174T405 219Q405 247 395 269T368 306T328 330T279 338H252L246 337V441H274Q296 441 316 446T351 462T376 490T385 533Q385 573 360 597T295 622Q259 622 235 599T208 539H85Q85 583 103 618T150 679T218 719T298 733Q338 733 376 720T442 683T488 624T506 546Q506 524 501 502T485 461T459 425T423 399Q451 389 473 370T512 327T536 274T545 215Q545 168 525 127T471 53Q434 18 392 2T298 -14Q249 -14 204 1T124 44T67 113T42 206H177Z"  />
<glyph unicode="4" horiz-adv-x="580" d="M578 190H471V114H554V0H256V114H339V190H10V294L318 714H471V294H578V190ZM339 553L155 294H339V553Z"  />
<glyph unicode="5" horiz-adv-x="580" d="M168 191Q183 153 214 131T288 109Q316 109 340 119T383 147T411 189T422 242Q422 270 411 294T382 336T339 363T287 373Q249 373 219 355T172 303L60 332L124 714H504V600H229L201 449Q255 487 326 487Q377 487 419 468T493 414T542 336T560 242Q560 185 538 138T479 57T392 5T287 -14Q239 -14 196 0T119 41T62 106T28 191H168Z"  />
<glyph unicode="6" horiz-adv-x="580" d="M434 714L268 477Q284 486 298 489T331 493Q380 493 421 473T493 419T540 341T557 250Q557 195 537 147T481 63T397 7T293 -14Q243 -14 193 7T108 62Q70 100 50 151T30 256Q30 307 47 348T93 432L285 714H434ZM294 115Q321 115 345 125T388 153T417 194T428 245Q428 273 418 297T390 340T348 369T295 380Q268 380 244 370T201 343T172 301T161 249Q161 222 171 198T199 155T241 126T294 115Z"  />
<glyph unicode="7" horiz-adv-x="580" d="M531 714V599L265 0H118L394 600H186V485H57V714H531Z"  />
<glyph unicode="8" horiz-adv-x="580" d="M414 398Q442 389 465 371T505 328T530 275T539 216Q539 164 518 122T462 49T382 3T288 -14Q240 -14 195 1T116 44T62 114T41 208Q41 268 75 318T165 391Q123 410 100 449T76 534Q76 580 94 616T142 679T211 719T293 733Q332 733 368 719T433 680T478 621T495 545Q495 498 475 461T414 398ZM289 102Q312 102 332 111T368 136T391 172T400 216Q400 240 391 260T366 296T330 321T285 330Q261 330 241 321T205 297T181 261T172 216Q172 192 181 171T206 135T243 111T289 102ZM286 438Q324 438 350 464T376 528Q376 546 369 563T350 592T322 612T287 620Q249 620 222 594T195 530Q195 492 221 465T286 438Z"  />
<glyph unicode="9" horiz-adv-x="580" d="M146 0L324 237Q309 229 294 225T261 220Q210 220 167 241T93 297T45 377T28 471Q28 524 49 571T108 655T193 712T295 733Q346 733 394 714T479 660Q521 621 541 571T561 464Q561 410 546 371T502 288L311 0H146ZM295 335Q323 335 347 345T390 374T418 418T429 471Q429 498 418 522T389 563T347 591T295 602Q268 602 244 592T201 564T171 522T160 471Q160 443 170 418T199 375T241 346T295 335Z"  />
<glyph unicode=":" horiz-adv-x="300" d="M213 0H87V141H213V0ZM213 373H87V514H213V373Z"  />
<glyph unicode=";" horiz-adv-x="300" d="M213 -19Q213 -46 210 -69T189 -113Q171 -135 152 -139T106 -144H87V-76H100Q115 -76 123 -71T135 -56T140 -36T141 -13V0H87V141H213V-19ZM213 373H87V514H213V373Z"  />
<glyph unicode="&lt;" horiz-adv-x="660" d="M595 67L55 314V402L595 651V559L145 357L595 158V67Z"  />
<glyph unicode="=" horiz-adv-x="660" d="M584 482V389H76V482H584ZM584 326V233H76V326H584Z"  />
<glyph unicode="&gt;" horiz-adv-x="660" d="M505 357L55 559V651L595 402V314L55 67V158L505 357Z"  />
<glyph unicode="?" horiz-adv-x="540" d="M338 0H212V141H338V0ZM212 200Q212 232 219 257T240 305T272 348T312 388Q325 400 337 411T358 435T373 462T379 496Q379 517 371 536T349 571T315 594T275 603Q225 603 196 570T165 488H36Q35 539 53 583T104 661T180 713T276 733Q323 733 365 715T440 664T491 590T510 499Q510 457 499 429T470 379T432 340T392 303T358 259T338 200H212Z"  />
<glyph unicode="@" horiz-adv-x="880" d="M756 105Q699 42 630 14T476 -14Q404 -14 331 10T202 83Q174 107 152 138T115 204T91 276T82 352Q82 430 113 499T197 621T321 703T469 733Q535 733 595 711T700 650T772 554T799 429Q799 381 787 337T747 254Q719 216 675 188T583 160Q550 160 534 175T512 223Q490 195 462 180T397 164Q364 164 338 177T294 212T267 263T258 324Q258 366 275 408T322 485T391 540T475 562Q507 562 534 546T573 500L584 531H656L582 291Q579 281 576 270T573 247Q573 217 603 217Q615 217 628 222T654 236T677 254T695 273Q721 305 732 342T743 420Q743 480 722 527T663 607T575 657T467 674Q400 674 345 653T242 583Q196 538 171 481T146 357Q146 287 171 230T241 131T345 67T473 44Q551 44 615 69T735 150L756 105ZM410 233Q432 233 449 241T480 264T503 296T520 332Q528 352 534 378T540 426Q540 456 524 475T475 495Q444 495 419 478T375 436T347 379T337 321Q337 286 355 260T410 233Z"  />
<glyph unicode="A" horiz-adv-x="780" d="M476 100H555L513 207H262L221 100H298V0H7V114H83L291 600H212V714H451L701 114H777V0H476V100ZM389 557H388L297 312H479L389 557Z"  />
<glyph unicode="B" horiz-adv-x="600" d="M22 114H99V600H22V714H339Q379 714 417 708T487 677Q522 651 538 615T554 535Q554 486 530 445T461 383Q521 359 553 311T585 199Q585 156 568 116T518 48Q482 16 441 8T354 0H22V114ZM236 429H305Q330 429 353 430T397 447Q414 459 421 477T429 515Q429 537 420 555T392 586Q373 598 351 599T306 600H236V429ZM235 119H310Q334 119 361 121T409 137Q429 150 439 171T449 215Q449 239 440 260T410 296Q388 312 363 314T311 317H235V119Z"  />
<glyph unicode="C" horiz-adv-x="760" d="M588 489Q573 514 551 534T503 569T449 590T391 598Q340 598 298 580T224 531T175 456T157 362Q157 314 175 272T224 197T298 146T389 127Q451 127 504 155T590 235H737Q719 180 685 135T604 56T502 5T390 -14Q318 -14 249 15T128 96Q75 150 48 219T20 363Q20 438 48 505T126 623T242 703T385 733Q448 733 505 712T606 645V717H718V489H588Z"  />
<glyph unicode="D" horiz-adv-x="740" d="M22 114H100V600H22V714H361Q436 714 496 695T610 620Q662 567 686 499T711 355Q711 286 688 222T619 106Q565 46 502 23T359 0H22V114ZM236 123H343Q368 123 392 125T438 134T479 153T517 186Q546 220 560 265T575 355Q575 403 561 452T513 536Q476 573 435 583T345 593H236V123Z"  />
<glyph unicode="E" horiz-adv-x="580" d="M22 114H100V600H22V714H551V499H415V592H236V414H444V308H236V119H415V216H551V0H22V114Z"  />
<glyph unicode="F" horiz-adv-x="580" d="M100 600H22V714H555V499H419V592H236V409H443V304H236V114H314V0H22V114H100V600Z"  />
<glyph unicode="G" horiz-adv-x="780" d="M752 0H639V110Q597 48 531 17T391 -14Q314 -14 246 15T128 95T49 214T20 359Q20 432 45 497T121 617Q173 671 243 702T389 733Q454 733 509 712T614 648V714H726V504H578Q543 550 497 573Q450 597 392 597Q342 597 299 579T225 529T175 454T157 361Q157 312 175 269T224 193T298 141T391 122Q463 122 519 159T601 262H337V377H752V0Z"  />
<glyph unicode="H" horiz-adv-x="740" d="M511 600H434V714H724V600H647V114H724V0H434V114H511V292H236V114H313V0H22V114H100V600H22V714H313V600H236V428H511V600Z"  />
<glyph unicode="I" horiz-adv-x="340" d="M236 114H313V0H22V114H100V600H22V714H313V600H236V114Z"  />
<glyph unicode="J" horiz-adv-x="540" d="M154 201Q154 184 159 169T174 140T198 120T232 112Q276 112 299 151Q310 170 311 195T313 241V600H235V714H526V600H449V224Q449 200 448 179T441 137T427 97T400 58Q370 23 325 5T233 -14Q185 -14 144 1T73 45T27 112T12 201H154Z"  />
<glyph unicode="K" horiz-adv-x="720" d="M702 0H398V114H468L236 335V114H313V0H22V114H100V600H22V714H313V600H236V391L457 600H393V714H687V600H626L372 366L639 114H702V0Z"  />
<glyph unicode="L" horiz-adv-x="560" d="M22 114H100V600H22V714H313V600H236V122H407V216H543V0H22V114Z"  />
<glyph unicode="M" horiz-adv-x="960" d="M864 114H942V0H651V114H728V529L531 0H435L232 529V114H315V0H18V114H96V600H18V714H286L480 210L674 714H942V600H864V114Z"  />
<glyph unicode="N" horiz-adv-x="800" d="M698 0H571L235 470V114H313V0H22V114H99V600H22V714H222L562 236V600H484V714H775V600H698V0Z"  />
<glyph unicode="O" horiz-adv-x="780" d="M394 -15Q317 -15 249 14T130 93T50 212T20 357Q20 436 49 504T130 623T250 703T397 732Q473 732 540 703T659 624T739 506T769 363Q769 285 740 216T660 96T541 15T394 -15ZM394 121Q444 121 487 140T561 192T611 268T629 362Q629 410 611 452T561 527T487 577T396 596Q347 596 304 578T229 528T179 453T160 361Q160 311 178 268T227 192T301 140T394 121Z"  />
<glyph unicode="P" horiz-adv-x="600" d="M307 714Q355 714 406 705T497 667Q542 634 563 586T585 481Q585 433 568 390T516 313Q477 273 433 260T334 247H236V114H314V0H23V114H100V600H23V714H307ZM317 370Q343 370 366 373T409 394Q429 411 438 433T448 481Q448 507 436 530T403 568Q381 584 359 587T311 590H236V370H317Z"  />
<glyph unicode="Q" horiz-adv-x="860" d="M863 162V-19L821 -22Q761 -22 705 -5T601 50Q553 18 502 2T392 -14Q313 -14 245 15T127 96T49 216T20 363Q20 439 49 506T129 624T246 703T390 733Q468 733 536 704T656 625T736 507T766 361Q766 298 745 237T681 128Q699 115 719 107T763 96V162H863ZM163 345Q192 357 224 363T288 369Q333 369 372 358T447 326T515 279T576 220Q626 279 626 356Q626 406 608 450T559 526T484 578T390 597Q342 597 298 579T222 525Q195 496 178 459T160 382L163 345ZM395 122Q421 122 446 128T494 149Q449 195 398 227T280 259Q257 259 234 254T190 237Q222 181 277 152T395 122Z"  />
<glyph unicode="R" horiz-adv-x="640" d="M99 600H22V714H341Q394 714 440 705T528 659Q570 623 591 575T613 471Q613 432 601 395T565 328T509 279T436 256L547 114H628V0H461L235 321V114H296V0H22V114H99V600ZM309 334Q341 334 371 338T428 363Q452 382 464 409T477 466Q477 495 465 522T430 567Q407 586 383 589T329 592H235V334H309Z"  />
<glyph unicode="S" horiz-adv-x="520" d="M149 212Q149 190 156 170T177 135T210 112T255 103Q300 103 330 129T360 201Q360 228 349 245T320 274T281 293T238 306Q199 317 165 329T98 367Q20 425 20 523Q20 567 37 605T85 670T154 713T236 729Q273 729 306 716T363 674V714H467V522H345Q344 562 318 588T252 615Q212 615 184 592T155 526Q155 500 165 483T193 455T230 438T272 425Q314 414 352 400T425 360Q460 332 478 294T496 210Q496 162 479 121T432 50T361 3T270 -14Q228 -14 194 0T133 47V0H25V212H149Z"  />
<glyph unicode="T" horiz-adv-x="600" d="M369 114H447V0H155V114H233V593H128V489H20V714H582V489H474V593H369V114Z"  />
<glyph unicode="U" horiz-adv-x="700" d="M686 714V600H609V246Q609 190 597 145T544 58Q506 18 458 2T355 -14Q303 -14 256 0T171 52Q149 73 136 96T114 143T103 194T100 250V600H23V714H301V600H236V264Q236 238 239 213T257 164Q274 139 300 127T355 114Q382 114 406 124T447 157Q465 180 469 208T473 264V600H408V714H686Z"  />
<glyph unicode="V" horiz-adv-x="740" d="M438 0H289L84 600H7V714H296V600H228L369 188L520 600H451V714H732V600H656L438 0Z"  />
<glyph unicode="W" horiz-adv-x="1020" d="M769 0H640L508 471L376 0H249L78 600H7V714H297V600H219L320 225L449 714H564L701 229L797 600H717V714H1007V600H928L769 0Z"  />
<glyph unicode="X" horiz-adv-x="740" d="M721 0H428V105H498L370 268L241 105H312V0H19V114H89L288 362L100 600H27V714H321V609H255L370 457L485 609H419V714H714V600H642L450 362L648 114H721V0Z"  />
<glyph unicode="Y" horiz-adv-x="680" d="M404 114H482V0H191V114H268V249L79 600H7V714H283V600H217L337 364L456 600H388V714H663V600H592L404 249V114Z"  />
<glyph unicode="Z" horiz-adv-x="560" d="M539 0H20V107L360 595H158V497H37V714H524V611L182 119H414V217H539V0Z"  />
<glyph unicode="[" horiz-adv-x="380" d="M339 -129H41V714H339V599H178V-14H339V-129Z"  />
<glyph unicode="\" horiz-adv-x="620" d="M108 714H209L513 0H413L108 714Z"  />
<glyph unicode="]" horiz-adv-x="380" d="M202 -14V599H41V714H339V-129H41V-14H202Z"  />
<glyph unicode="^" horiz-adv-x="660" d="M38 174L285 714H373L622 174H531L328 617L129 174H38Z"  />
<glyph unicode="_" horiz-adv-x="500" d="M500 -75V-125H0V-75H500Z"  />
<glyph unicode="`" horiz-adv-x="460" d="M347 600L71 725L120 833L388 689L347 600Z"  />
<glyph unicode="a" horiz-adv-x="660" d="M458 72Q429 27 384 7T286 -14Q229 -14 179 8T92 68T34 156T12 264Q12 322 34 373T93 464T182 525T292 548Q344 548 387 525T458 458V534H649V420H582V114H649V0H458V72ZM297 105Q331 105 361 118T413 153T447 206T460 270Q460 303 447 332T413 382T362 416T299 429Q265 429 236 416T185 381T151 328T138 264Q138 231 150 203T185 152T236 118T297 105Z"  />
<glyph unicode="b" horiz-adv-x="660" d="M208 457Q237 499 279 520T373 542Q430 542 480 521T567 462T626 374T648 267Q648 215 630 166T576 79Q541 40 491 16T387 -8Q333 -8 286 14T208 80V0H17V114H86V600H17V714H208V457ZM365 431Q332 431 303 419T251 384T216 333T203 270Q203 235 216 205T251 153T303 118T368 105Q402 105 431 118T481 154T515 206T527 269Q527 302 514 331T479 383T428 418T365 431Z"  />
<glyph unicode="c" horiz-adv-x="580" d="M559 180Q547 138 521 102T458 41T380 1T294 -14Q236 -14 185 8T95 68T35 157T12 267Q12 322 32 373T89 464T175 526T281 550Q326 550 365 533T434 483V534H539V356H425Q403 388 368 409Q333 429 292 429Q258 429 229 416T179 381T146 330T134 267Q134 233 146 204T181 153T232 119T295 106Q334 106 370 125T423 180H559Z"  />
<glyph unicode="d" horiz-adv-x="660" d="M459 80Q429 35 384 14T284 -8Q228 -8 179 14T92 74T34 161T12 267Q12 323 33 373T91 461T177 521T283 543Q334 543 380 521T459 456V600H389V714H581V114H650V0H459V80ZM300 104Q334 104 363 117T415 152T449 205T462 269Q462 302 449 331T415 382T364 416T302 429Q268 429 238 416T186 381T152 329T139 265Q139 232 151 203T186 152T237 117T300 104Z"  />
<glyph unicode="e" horiz-adv-x="580" d="M546 157Q530 119 505 88T446 34T375 -1T294 -14Q235 -14 184 7T95 66T35 155T13 265Q13 324 34 376T92 466T180 527T291 550Q347 550 399 527T491 464Q531 422 548 372T566 264L562 221H130Q136 193 151 170T187 129T235 103T290 93Q330 93 363 108T419 157H546ZM453 315Q437 373 391 407T285 441Q258 441 233 431T186 404T150 364T129 315H453Z"  />
<glyph unicode="f" horiz-adv-x="320" d="M208 114H278V0H17V114H86V420H17V534H86Q85 635 138 684T293 733V624Q246 625 226 601T208 534H278V420H208V114Z"  />
<glyph unicode="g" horiz-adv-x="660" d="M183 -46Q199 -80 233 -96T303 -112Q335 -112 365 -99T416 -63Q442 -33 447 -5T453 61V81Q424 34 380 13T282 -8Q225 -8 176 14T90 74T33 162T12 268Q12 323 33 373T92 460T178 520T283 543Q337 543 384 523T461 456V534H642V420H573V71Q573 40 571 13T563 -40T543 -89T506 -136Q463 -178 410 -197T297 -217Q255 -217 214 -207T139 -175T78 -122T42 -46H183ZM137 269Q137 235 149 205T184 153T236 118T300 105Q334 105 364 118T415 153T449 206T462 270Q462 303 449 332T414 384T362 418T299 431Q266 431 237 418T185 383T150 332T137 269Z"  />
<glyph unicode="h" horiz-adv-x="640" d="M208 454Q234 499 275 522T368 546Q415 546 453 526T519 468Q549 427 556 387T563 298V114H632V0H372V114H441V265Q441 294 440 322T423 377Q406 403 381 414T326 426Q299 426 275 415T234 383Q214 358 211 332T208 276V114H277V0H17V114H86V600H17V714H208V454Z"  />
<glyph unicode="i" horiz-adv-x="300" d="M211 114H280V0H19V114H89V420H20V534H211V114ZM211 585H89V714H211V585Z"  />
<glyph unicode="j" horiz-adv-x="280" d="M220 8Q220 -98 168 -146T12 -201V-88Q46 -86 64 -73T89 -39T97 6T98 58V420H29V534H220V8ZM220 585H98V714H220V585Z"  />
<glyph unicode="k" horiz-adv-x="600" d="M346 432H291V534H554V420H489L342 278L498 114H582V0H291V114H336L209 254V114H257V0H17V114H87V600H17V714H209V295L346 432Z"  />
<glyph unicode="l" horiz-adv-x="300" d="M213 114H282V0H17V114H91V600H22V714H213V114Z"  />
<glyph unicode="m" horiz-adv-x="980" d="M89 420H20V534H200V454Q226 496 264 521T354 547Q410 547 453 517T520 435Q542 486 590 516T695 547Q739 547 779 530T849 479Q865 461 873 442T886 402T890 361T891 316V114H960V0H700V114H769V286Q769 312 767 336T753 383Q738 405 715 416T666 427Q641 427 617 417T576 387Q557 363 554 339T551 286V114H620V0H360V114H429V278Q429 302 427 329T413 378Q400 402 376 414T325 427Q272 427 240 388Q220 363 216 337T211 279V114H280V0H20V114H89V420Z"  />
<glyph unicode="n" horiz-adv-x="640" d="M86 420H17V534H208V458Q232 503 274 524T366 546Q410 546 450 529T520 480Q536 462 545 444T559 406T564 367T565 323V114H634V0H374V114H443V287Q443 312 441 336T422 383Q405 405 380 415T328 426Q300 426 274 415T231 381Q214 358 211 327T208 269V114H277V0H17V114H86V420Z"  />
<glyph unicode="o" horiz-adv-x="580" d="M291 -14Q232 -14 182 8T93 69T34 159T12 269Q12 327 34 378T95 468T184 528T294 550Q352 550 402 528T490 467T550 378T572 270Q572 211 550 160T490 70T401 9T291 -14ZM291 106Q324 106 353 118T405 153T439 204T452 267Q452 300 440 329T407 381T356 417T294 430Q261 430 232 418T180 384T145 333T132 270Q132 237 144 207T177 155T228 119T291 106Z"  />
<glyph unicode="p" horiz-adv-x="660" d="M85 420H17V534H208V450Q237 496 283 518T383 540Q440 540 489 519T575 460T633 372T655 265Q655 210 634 161T577 74T493 14T389 -8Q336 -8 288 12T208 75V-81H277V-195H17V-81H85V420ZM368 105Q401 105 430 117T481 152T516 203T529 265Q529 298 517 327T484 379T433 415T371 428Q337 428 308 416T256 382T220 330T207 266Q207 233 219 204T254 152T305 118T368 105Z"  />
<glyph unicode="q" horiz-adv-x="660" d="M459 75Q427 33 379 13T278 -8Q222 -8 174 14T89 73T33 160T12 265Q12 322 33 372T92 459T178 518T285 540Q339 540 384 518T459 450V534H650V420H582V-81H650V-195H390V-81H459V75ZM299 105Q333 105 362 117T413 152T447 203T460 266Q460 300 447 330T412 381T360 415T296 428Q263 428 234 415T184 380T151 328T139 265Q139 232 152 203T186 152T237 118T299 105Z"  />
<glyph unicode="r" horiz-adv-x="380" d="M199 443Q222 491 264 514T359 540V415Q330 413 304 405T254 376Q224 350 216 319T208 249V114H277V0H17V114H86V420H17V534H199V443Z"  />
<glyph unicode="s" horiz-adv-x="460" d="M150 155Q153 119 175 97T236 75Q264 75 286 93T309 141Q309 161 301 173T279 193T250 205T218 214Q183 223 148 234T86 264T41 311T23 384Q23 422 38 452T78 502T135 534T204 545Q240 545 271 536T325 497V534H415V389H297Q295 418 276 435T228 452Q203 452 182 438T160 396Q160 377 168 365T189 346T217 334T248 326Q284 318 319 307T383 277T429 229T447 154Q447 113 431 82T389 30T328 -3T256 -14Q215 -14 180 -1T118 44V0H25V155H150Z"  />
<glyph unicode="t" horiz-adv-x="340" d="M218 114H315V0H96V420H12V534H96V714H218V534H309V420H218V114Z"  />
<glyph unicode="u" horiz-adv-x="640" d="M550 114H619V0H438V66Q412 27 368 7T277 -14Q234 -14 196 3T129 54Q100 89 91 127T82 209V420H13V534H204V245Q204 219 207 193T225 145Q240 122 264 111T315 99Q341 99 365 111T405 143Q422 167 425 193T428 248V420H359V534H550V114Z"  />
<glyph unicode="v" horiz-adv-x="600" d="M364 0H236L72 420H7V534H256V420H202L300 150H301L406 420H349V534H595V420H532L364 0Z"  />
<glyph unicode="w" horiz-adv-x="880" d="M646 0H528L431 314L316 0H202L74 420H7V534H254V420H195L272 169H273L385 514H485L589 169H590L672 420H611V534H863V420H792L646 0Z"  />
<glyph unicode="x" horiz-adv-x="620" d="M389 270L532 114H594V0H342V100H384L306 195L227 100H269V0H17V114H80L221 270L83 420H23V534H269V440H224L306 347L387 440H342V534H585V420H525L389 270Z"  />
<glyph unicode="y" horiz-adv-x="600" d="M326 -81H396V-195H136V-81H203L239 7L77 420H7V534H259V420H207L302 159L403 420H351V534H600V420H533L326 -81Z"  />
<glyph unicode="z" horiz-adv-x="460" d="M434 534V424L177 114H341V173H448V0H12V98L283 420H131V357H24V534H434Z"  />
<glyph unicode="{" horiz-adv-x="320" d="M215 -16Q215 -63 230 -89T293 -129Q255 -129 222 -128T156 -104Q127 -85 121 -57T115 2V187Q115 210 113 226T94 261Q72 286 36 295Q63 300 87 317Q109 334 112 355T115 402V566Q115 595 119 626T145 680Q159 694 177 701T214 711T254 714T293 714Q248 700 232 673T215 601V428Q215 402 212 381T200 342T174 313T128 295Q182 282 198 251T215 169V-16Z"  />
<glyph unicode="|" horiz-adv-x="660" d="M376 750V-250H284V750H376Z"  />
<glyph unicode="}" horiz-adv-x="320" d="M114 601Q114 646 98 673T37 713Q55 713 75 713T114 711T152 701T184 680Q206 658 210 627T214 566V402Q214 377 217 356T242 317Q266 300 293 295Q257 286 235 261Q219 242 217 226T214 187V2Q214 -29 208 -57T173 -104Q140 -126 108 -127T37 -129Q83 -115 98 -89T114 -16V169Q114 220 130 251T201 295Q173 301 156 313T130 342T117 380T114 428V601Z"  />
<glyph unicode="~" horiz-adv-x="660" d="M611 402Q595 380 579 359T544 321T502 294T448 283Q419 283 395 290T344 308L296 327Q276 334 254 342T211 351Q192 351 178 343T152 323T131 296T112 267L40 314Q55 337 71 359T108 399T153 428T209 439Q241 439 274 429T338 406T398 383T448 372Q464 372 477 379T502 398T522 423T539 448L611 402Z"  />
<glyph unicode="&#xA0;" horiz-adv-x="300" />
<glyph unicode="&#xA1;" horiz-adv-x="200" d="M37 534H163V393H37V534ZM37 319H163V-181H37V319Z"  />
<glyph unicode="&#xA2;" horiz-adv-x="580" d="M346 590Q370 584 391 572T430 541V580H507V418H391Q378 444 352 457T298 470Q274 470 254 462T218 438T194 402T185 357Q185 333 194 313T219 277T256 254T301 245Q327 245 348 257T387 289H521Q502 224 456 184T346 126V29H246V130Q206 137 172 158T112 209T73 276T59 355Q59 396 73 434T112 504T171 558T246 588V687H346V590Z"  />
<glyph unicode="&#xA3;" horiz-adv-x="580" d="M397 400V300H274Q292 277 306 253T320 197Q320 138 275 105H337Q360 105 383 108T424 126Q441 140 450 162T459 207Q459 218 458 226T453 244H558Q568 218 568 191Q568 146 550 109T500 46Q466 17 426 9T344 0H56V105H130Q159 110 176 131T194 184Q194 221 177 247T137 300H13V400H80Q64 425 57 449T50 505Q50 553 69 594T119 665T191 712T274 729Q312 729 339 715T392 673V714H504V516H392Q391 539 382 557T359 588T327 608T288 615Q265 615 245 606T209 581T186 543T177 496Q177 467 186 444T214 400H397Z"  />
<glyph unicode="&#xA4;" horiz-adv-x="580" d="M92 210Q72 237 62 273T51 343Q51 376 61 412T92 476L38 529L107 598L159 545Q189 566 223 576T294 586Q332 586 364 576T429 546L481 598L550 529L497 477Q518 447 527 413T537 342Q537 302 527 273T497 209L550 156L481 89L429 141Q399 121 365 110T296 99Q221 99 160 141L107 89L37 156L92 210ZM294 476Q266 476 242 466T200 437T172 395T161 343Q161 316 171 292T199 249T241 220T293 209Q320 209 344 219T387 247T416 289T427 341Q427 369 417 393T388 436T346 465T294 476Z"  />
<glyph unicode="&#xA5;" horiz-adv-x="580" d="M164 0V114H232V248L224 263H29V320H196L177 363H29V420H149L64 601H0V714H243V601H186L292 363L397 601H340V714H580V601H517L434 420H550V363H406L385 320H550V263H357L351 248V114H420V0H164Z"  />
<glyph unicode="&#xA6;" horiz-adv-x="660" d="M376 675V325H284V675H376ZM376 175V-175H284V175H376Z"  />
<glyph unicode="&#xA7;" horiz-adv-x="460" d="M144 56Q140 14 165 -8T231 -31Q266 -31 293 -12T320 45Q320 67 311 81T287 105T254 119T218 128Q183 136 153 149T99 182T62 232T48 301Q48 351 76 388T151 442Q109 458 81 486T53 562Q53 597 67 625T106 673T161 703T225 714Q260 714 292 704T350 674T391 625T406 557H304Q306 572 300 583T284 603T261 615T234 620Q204 620 182 602T159 552Q159 531 169 517T196 494T230 480T265 469Q292 461 316 452T361 423Q387 400 401 369T415 303Q415 256 391 221T326 164Q371 148 397 116T423 34Q423 -4 407 -34T365 -86T305 -119T236 -131Q199 -131 163 -120T98 -85Q70 -62 54 -29T37 41V56H144ZM231 225Q262 225 286 246T310 299Q310 332 286 353T230 374Q198 374 174 353T149 299Q149 265 174 245T231 225Z"  />
<glyph unicode="&#xA8;" horiz-adv-x="460" d="M384 585H262V714H384V585ZM198 585H76V714H198V585Z"  />
<glyph unicode="&#xA9;" horiz-adv-x="820" d="M783 363Q783 284 754 215T674 95T555 15T407 -14Q330 -14 263 15T146 96T67 215T38 360Q38 437 67 505T146 623T265 703T411 733Q487 733 555 704T673 625T753 507T783 363ZM411 38Q477 38 535 63T637 131T706 233T732 357Q732 425 707 484T638 587T535 656T409 681Q343 681 285 656T183 587T114 485T88 361Q88 294 113 235T183 133T285 64T411 38ZM613 265Q602 233 582 209T534 170T475 147T411 139Q363 139 324 155T257 200T214 269T199 356Q199 406 215 448T262 520T333 568T424 585Q453 585 484 578T541 555T586 517T613 463L545 447Q537 495 504 519T421 543Q382 543 353 528T305 487T276 428T266 360Q266 324 275 292T304 236T351 198T419 183Q470 183 503 209T553 284L613 265Z"  />
<glyph unicode="&#xAA;" horiz-adv-x="420" d="M276 438Q258 415 232 405T178 394Q143 394 113 407T61 444T26 497T13 562Q13 596 25 627T60 681T112 719T177 733Q208 733 232 723T276 688V724H396V650H355V477H396V403H276V438ZM184 472Q223 472 249 499T276 565Q276 603 250 629T186 655Q166 655 150 648T121 628T101 598T94 562Q94 525 120 499T184 472Z"  />
<glyph unicode="&#xAB;" horiz-adv-x="360" d="M36 220V315L159 457L165 342L101 263L165 185L159 77L36 220ZM197 220V311L319 455L325 336L263 262L325 188L319 82L197 220Z"  />
<glyph unicode="&#xAC;" horiz-adv-x="660" d="M528 389H39V482H621V174H528V389Z"  />
<glyph unicode="&#xAD;" horiz-adv-x="320" d="M32 202V323H288V202H32Z"  />
<glyph unicode="&#xAE;" horiz-adv-x="820" d="M783 359Q783 281 754 213T673 95T554 15T408 -14Q331 -14 263 16T145 97T66 216T37 361Q37 439 66 506T147 624T266 704T411 733Q488 733 556 704T674 623T754 504T783 359ZM413 38Q479 38 537 64T639 134T707 236T732 361Q732 428 707 486T637 588T534 657T408 682Q342 682 284 657T183 588T114 486T89 361Q89 293 114 234T183 132T286 63T413 38ZM610 142H537L417 343H320V142H257V586H460Q486 586 513 583T566 566Q594 550 606 523T618 465Q618 402 581 374T483 343L610 142ZM436 391Q457 391 478 393T516 403T544 426T555 469Q555 493 545 507T518 529T483 539T444 541H320V391H436Z"  />
<glyph unicode="&#xAF;" horiz-adv-x="520" d="M455 637H71V735H455V637Z"  />
<glyph unicode="&#xB0;" horiz-adv-x="400" d="M350 583Q350 552 338 525T306 477T258 445T200 433Q169 433 142 445T94 477T62 524T50 583Q50 614 62 641T94 688T141 721T200 733Q231 733 258 721T305 689T338 641T350 583ZM280 583Q280 617 257 640T200 663Q166 663 143 640T120 583Q120 549 143 527T200 503Q234 503 257 526T280 583Z"  />
<glyph unicode="&#xB1;" horiz-adv-x="660" d="M284 496V612H376V496H584V404H376V286H284V404H76V496H284ZM76 194H584V102H76V194Z"  />
<glyph unicode="&#xB2;" horiz-adv-x="348" d="M21 293V362L188 511Q206 528 225 547T244 592Q244 619 223 636T173 654Q141 654 121 633T103 582H19Q19 614 30 641T63 689T113 721T178 733Q209 733 237 722T285 692T317 648T329 593Q329 569 322 550T302 515T274 485T240 455L131 362H250V407H326V293H21Z"  />
<glyph unicode="&#xB3;" horiz-adv-x="348" d="M140 558H158Q187 558 209 570T231 613Q231 637 215 651T172 666Q149 666 133 653T116 617H36Q36 643 47 664T78 701T122 724T174 733Q200 733 224 725T267 703T297 668T309 621Q309 595 295 570T255 533Q292 520 313 489T335 422Q335 392 322 367T286 324T234 296T174 285Q142 285 113 294T61 319T24 360T8 417H95Q100 391 120 374T169 356Q200 356 222 376T244 425Q244 458 220 477T162 496H140V558Z"  />
<glyph unicode="&#xB4;" horiz-adv-x="460" d="M71 687L336 837L389 730L113 600L71 687Z"  />
<glyph unicode="&#xB5;" horiz-adv-x="640" d="M554 114H623V0H442V66Q416 27 372 7T281 -14Q240 -14 208 0V-195H86V420H17V534H208V245Q208 216 212 190T229 143T263 111T319 99Q324 99 342 102T380 119T416 160T432 238V420H363V534H554V114Z"  />
<glyph unicode="&#xB6;" horiz-adv-x="540" d="M541 714V600H472V-129H382V600H284V-129H194V357Q157 358 125 372T68 409T30 465T16 535Q16 574 32 609T77 670Q109 699 144 706T221 714H541Z"  />
<glyph unicode="&#xB7;" horiz-adv-x="300" d="M213 288H87V429H213V288Z"  />
<glyph unicode="&#xB8;" horiz-adv-x="360" d="M183 -69L196 -68Q217 -68 234 -76T264 -98T284 -130T291 -168Q291 -217 259 -248T178 -280Q133 -280 103 -251T69 -177H143Q147 -190 156 -198T179 -207Q196 -207 206 -197T216 -170Q216 -154 206 -143T179 -131Q159 -131 145 -147L85 -122L133 0H211L183 -69Z"  />
<glyph unicode="&#xB9;" horiz-adv-x="348" d="M221 354H276V286H81V354H135V646H67V714H221V354Z"  />
<glyph unicode="&#xBA;" horiz-adv-x="360" d="M182 399Q147 399 117 412T65 448T29 501T16 567Q16 602 29 632T65 684T118 720T184 733Q218 733 248 720T301 685T337 633T350 569Q350 534 337 503T302 449T248 413T182 399ZM95 567Q95 530 120 504T182 477Q219 477 245 503T271 566Q271 584 264 600T246 628T218 648T184 655Q166 655 150 648T121 629T102 601T95 567Z"  />
<glyph unicode="&#xBB;" horiz-adv-x="360" d="M196 185L259 263L196 342L201 457L325 315V220L201 77L196 185ZM36 188L97 262L36 336L42 455L163 311V220L42 82L36 188Z"  />
<glyph unicode="&#xBC;" horiz-adv-x="870" d="M830 114H760V68H814V0H621V68H675V114H461V176L661 428H760V176H830V114ZM191 0L513 714H611L291 0H191ZM675 331L555 176H675V331ZM210 354H265V286H70V354H124V646H56V714H210V354Z"  />
<glyph unicode="&#xBD;" horiz-adv-x="870" d="M201 0L523 714H621L301 0H201ZM221 354H276V286H81V354H135V646H67V714H221V354ZM523 0V69L690 218Q708 235 727 254T746 299Q746 326 725 343T675 361Q643 361 623 340T605 289H521Q521 321 532 348T565 396T615 428T680 440Q711 440 739 429T787 399T819 355T831 300Q831 276 824 257T804 222T776 192T742 162L633 69H752V114H828V0H523Z"  />
<glyph unicode="&#xBE;" horiz-adv-x="870" d="M850 114H780V68H834V0H641V68H695V114H481V176L681 428H780V176H850V114ZM226 0L548 714H646L326 0H226ZM695 331L575 176H695V331ZM142 558H160Q189 558 211 570T233 613Q233 637 217 651T174 666Q151 666 135 653T118 617H38Q38 643 49 664T80 701T124 724T176 733Q202 733 226 725T269 703T299 668T311 621Q311 595 297 570T257 533Q294 520 315 489T337 422Q337 392 324 367T288 324T236 296T176 285Q144 285 115 294T63 319T26 360T10 417H97Q102 391 122 374T171 356Q202 356 224 376T246 425Q246 458 222 477T164 496H142V558Z"  />
<glyph unicode="&#xBF;" horiz-adv-x="540" d="M209 534H335V393H209V534ZM335 333Q335 301 328 276T307 228T275 186T235 146Q209 123 189 99T168 37Q168 16 176 -3T198 -36T231 -59T272 -68Q322 -68 351 -35T382 46H510Q511 -5 493 -49T442 -127T366 -179T271 -198Q223 -198 181 -180T106 -129T55 -55T36 35Q36 76 47 105T76 155T114 194T154 231T188 274T209 333H335Z"  />
<glyph unicode="&#xC0;" horiz-adv-x="780" d="M476 100H555L513 207H262L221 100H298V0H7V114H83L291 600H212V714H451L701 114H777V0H476V100ZM389 557H388L297 312H479L389 557ZM487 780L211 905L260 1013L528 869L487 780Z"  />
<glyph unicode="&#xC1;" horiz-adv-x="780" d="M476 100H555L513 207H262L221 100H298V0H7V114H83L291 600H212V714H451L701 114H777V0H476V100ZM389 557H388L297 312H479L389 557ZM211 867L476 1017L529 910L253 780L211 867Z"  />
<glyph unicode="&#xC2;" horiz-adv-x="780" d="M476 100H555L513 207H262L221 100H298V0H7V114H83L291 600H212V714H451L701 114H777V0H476V100ZM389 557H388L297 312H479L389 557ZM453 811L376 886L299 811H161L334 979H418L591 811H453Z"  />
<glyph unicode="&#xC3;" horiz-adv-x="780" d="M476 100H555L513 207H262L221 100H298V0H7V114H83L291 600H212V714H451L701 114H777V0H476V100ZM389 557H388L297 312H479L389 557ZM565 858Q541 837 513 825T453 813Q432 813 414 817T378 828T345 838T313 843Q293 843 277 836T246 814L182 904Q202 920 229 930T283 941Q303 941 321 937T357 927Q374 921 391 917T429 912Q451 912 470 918T506 939L565 858Z"  />
<glyph unicode="&#xC4;" horiz-adv-x="780" d="M476 100H555L513 207H262L221 100H298V0H7V114H83L291 600H212V714H451L701 114H777V0H476V100ZM389 557H388L297 312H479L389 557ZM524 765H402V894H524V765ZM338 765H216V894H338V765Z"  />
<glyph unicode="&#xC5;" horiz-adv-x="780" d="M476 100H555L513 207H262L221 100H298V0H7V114H83L291 600H212V714H451L701 114H777V0H476V100ZM389 557H388L297 312H479L389 557ZM380 778Q355 778 334 787T296 813T271 850T262 897Q262 921 271 942T297 979T334 1004T380 1013Q404 1013 425 1004T462 978T487 941T496 895Q496 871 487 850T462 813T425 788T380 778ZM379 848Q399 848 412 862T426 897Q426 916 412 929T379 943Q359 943 346 929T332 894Q332 874 346 861T379 848Z"  />
<glyph unicode="&#xC6;" horiz-adv-x="980" d="M427 96H504V210H293L218 96H296V0H7V114H86L418 600H343V714H957V499H821V593H640V413H849V310H640V120H821V216H957V0H427V96ZM504 542H503L354 310H504V542Z"  />
<glyph unicode="&#xC7;" horiz-adv-x="760" d="M588 489Q573 514 551 534T503 569T449 590T391 598Q340 598 298 580T224 531T175 456T157 362Q157 314 175 272T224 197T298 146T389 127Q451 127 504 155T590 235H737Q720 183 689 140T614 64T521 12T416 -12L393 -69L406 -68Q427 -68 444 -76T474 -98T494 -130T501 -168Q501 -217 469 -248T388 -280Q343 -280 313 -251T279 -177H353Q357 -190 366 -198T389 -207Q406 -207 416 -197T426 -170Q426 -154 416 -143T389 -131Q369 -131 355 -147L295 -122L339 -10Q279 -1 225 26T128 96Q75 150 48 219T20 363Q20 438 48 505T126 623T242 703T385 733Q448 733 505 712T606 645V717H718V489H588Z"  />
<glyph unicode="&#xC8;" horiz-adv-x="580" d="M22 114H100V600H22V714H551V499H415V592H236V414H444V308H236V119H415V216H551V0H22V114ZM407 780L131 905L180 1013L448 869L407 780Z"  />
<glyph unicode="&#xC9;" horiz-adv-x="580" d="M22 114H100V600H22V714H551V499H415V592H236V414H444V308H236V119H415V216H551V0H22V114ZM131 867L396 1017L449 910L173 780L131 867Z"  />
<glyph unicode="&#xCA;" horiz-adv-x="580" d="M22 114H100V600H22V714H551V499H415V592H236V414H444V308H236V119H415V216H551V0H22V114ZM363 811L286 886L209 811H71L244 979H328L501 811H363Z"  />
<glyph unicode="&#xCB;" horiz-adv-x="580" d="M22 114H100V600H22V714H551V499H415V592H236V414H444V308H236V119H415V216H551V0H22V114ZM444 765H322V894H444V765ZM258 765H136V894H258V765Z"  />
<glyph unicode="&#xCC;" horiz-adv-x="340" d="M236 114H313V0H22V114H100V600H22V714H313V600H236V114ZM288 780L12 905L61 1013L329 869L288 780Z"  />
<glyph unicode="&#xCD;" horiz-adv-x="340" d="M236 114H313V0H22V114H100V600H22V714H313V600H236V114ZM12 867L277 1017L330 910L54 780L12 867Z"  />
<glyph unicode="&#xCE;" horiz-adv-x="340" d="M236 114H313V0H22V114H100V600H22V714H313V600H236V114ZM254 811L177 886L100 811H-38L135 979H219L392 811H254Z"  />
<glyph unicode="&#xCF;" horiz-adv-x="340" d="M236 114H313V0H22V114H100V600H22V714H313V600H236V114ZM325 765H203V894H325V765ZM139 765H17V894H139V765Z"  />
<glyph unicode="&#xD0;" horiz-adv-x="740" d="M372 308H236V123H343Q368 123 392 125T438 134T479 153T517 186Q546 220 560 265T575 355Q575 403 561 452T513 536Q476 573 435 583T345 593H236V414H372V308ZM22 114H100V308H22V414H100V600H22V714H361Q436 714 496 695T610 620Q662 567 686 499T711 355Q711 286 688 222T619 106Q565 46 502 23T359 0H22V114Z"  />
<glyph unicode="&#xD1;" horiz-adv-x="800" d="M698 0H571L235 470V114H313V0H22V114H99V600H22V714H222L562 236V600H484V714H775V600H698V0ZM595 858Q571 837 543 825T483 813Q462 813 444 817T408 828T375 838T343 843Q323 843 307 836T276 814L212 904Q232 920 259 930T313 941Q333 941 351 937T387 927Q404 921 421 917T459 912Q481 912 500 918T536 939L595 858Z"  />
<glyph unicode="&#xD2;" horiz-adv-x="780" d="M394 -15Q317 -15 249 14T130 93T50 212T20 357Q20 436 49 504T130 623T250 703T397 732Q473 732 540 703T659 624T739 506T769 363Q769 285 740 216T660 96T541 15T394 -15ZM394 121Q444 121 487 140T561 192T611 268T629 362Q629 410 611 452T561 527T487 577T396 596Q347 596 304 578T229 528T179 453T160 361Q160 311 178 268T227 192T301 140T394 121ZM507 780L231 905L280 1013L548 869L507 780Z"  />
<glyph unicode="&#xD3;" horiz-adv-x="780" d="M394 -15Q317 -15 249 14T130 93T50 212T20 357Q20 436 49 504T130 623T250 703T397 732Q473 732 540 703T659 624T739 506T769 363Q769 285 740 216T660 96T541 15T394 -15ZM394 121Q444 121 487 140T561 192T611 268T629 362Q629 410 611 452T561 527T487 577T396 596Q347 596 304 578T229 528T179 453T160 361Q160 311 178 268T227 192T301 140T394 121ZM231 867L496 1017L549 910L273 780L231 867Z"  />
<glyph unicode="&#xD4;" horiz-adv-x="780" d="M394 -15Q317 -15 249 14T130 93T50 212T20 357Q20 436 49 504T130 623T250 703T397 732Q473 732 540 703T659 624T739 506T769 363Q769 285 740 216T660 96T541 15T394 -15ZM394 121Q444 121 487 140T561 192T611 268T629 362Q629 410 611 452T561 527T487 577T396 596Q347 596 304 578T229 528T179 453T160 361Q160 311 178 268T227 192T301 140T394 121ZM463 811L386 886L309 811H171L344 979H428L601 811H463Z"  />
<glyph unicode="&#xD5;" horiz-adv-x="780" d="M394 -15Q317 -15 249 14T130 93T50 212T20 357Q20 436 49 504T130 623T250 703T397 732Q473 732 540 703T659 624T739 506T769 363Q769 285 740 216T660 96T541 15T394 -15ZM394 121Q444 121 487 140T561 192T611 268T629 362Q629 410 611 452T561 527T487 577T396 596Q347 596 304 578T229 528T179 453T160 361Q160 311 178 268T227 192T301 140T394 121ZM585 858Q561 837 533 825T473 813Q452 813 434 817T398 828T365 838T333 843Q313 843 297 836T266 814L202 904Q222 920 249 930T303 941Q323 941 341 937T377 927Q394 921 411 917T449 912Q471 912 490 918T526 939L585 858Z"  />
<glyph unicode="&#xD6;" horiz-adv-x="780" d="M394 -15Q317 -15 249 14T130 93T50 212T20 357Q20 436 49 504T130 623T250 703T397 732Q473 732 540 703T659 624T739 506T769 363Q769 285 740 216T660 96T541 15T394 -15ZM394 121Q444 121 487 140T561 192T611 268T629 362Q629 410 611 452T561 527T487 577T396 596Q347 596 304 578T229 528T179 453T160 361Q160 311 178 268T227 192T301 140T394 121ZM544 765H422V894H544V765ZM358 765H236V894H358V765Z"  />
<glyph unicode="&#xD7;" horiz-adv-x="660" d="M265 358L91 532L156 597L330 423L504 597L569 532L395 358L569 184L504 119L330 293L156 119L91 184L265 358Z"  />
<glyph unicode="&#xD8;" horiz-adv-x="780" d="M123 -51L48 9L122 100Q70 156 46 219T21 358Q21 436 50 504T130 624T249 704T396 733Q423 733 445 730T488 721T530 706T574 685L588 677L659 764L735 704L664 617Q765 507 765 355Q765 277 735 210T654 93T533 15T387 -14Q347 -14 306 -6T230 21L195 39L123 -51ZM285 150Q314 137 337 129T393 121Q443 121 485 139T559 190T609 266T627 358Q627 406 614 438T575 506L285 150ZM501 567Q471 581 448 589T389 598Q341 598 299 579T226 526T177 449T159 357Q159 312 173 280T213 213L501 567Z"  />
<glyph unicode="&#xD9;" horiz-adv-x="700" d="M686 714V600H609V246Q609 190 597 145T544 58Q506 18 458 2T355 -14Q303 -14 256 0T171 52Q149 73 136 96T114 143T103 194T100 250V600H23V714H301V600H236V264Q236 238 239 213T257 164Q274 139 300 127T355 114Q382 114 406 124T447 157Q465 180 469 208T473 264V600H408V714H686ZM467 780L191 905L240 1013L508 869L467 780Z"  />
<glyph unicode="&#xDA;" horiz-adv-x="700" d="M686 714V600H609V246Q609 190 597 145T544 58Q506 18 458 2T355 -14Q303 -14 256 0T171 52Q149 73 136 96T114 143T103 194T100 250V600H23V714H301V600H236V264Q236 238 239 213T257 164Q274 139 300 127T355 114Q382 114 406 124T447 157Q465 180 469 208T473 264V600H408V714H686ZM191 867L456 1017L509 910L233 780L191 867Z"  />
<glyph unicode="&#xDB;" horiz-adv-x="700" d="M686 714V600H609V246Q609 190 597 145T544 58Q506 18 458 2T355 -14Q303 -14 256 0T171 52Q149 73 136 96T114 143T103 194T100 250V600H23V714H301V600H236V264Q236 238 239 213T257 164Q274 139 300 127T355 114Q382 114 406 124T447 157Q465 180 469 208T473 264V600H408V714H686ZM433 811L356 886L279 811H141L314 979H398L571 811H433Z"  />
<glyph unicode="&#xDC;" horiz-adv-x="700" d="M686 714V600H609V246Q609 190 597 145T544 58Q506 18 458 2T355 -14Q303 -14 256 0T171 52Q149 73 136 96T114 143T103 194T100 250V600H23V714H301V600H236V264Q236 238 239 213T257 164Q274 139 300 127T355 114Q382 114 406 124T447 157Q465 180 469 208T473 264V600H408V714H686ZM514 765H392V894H514V765ZM328 765H206V894H328V765Z"  />
<glyph unicode="&#xDD;" horiz-adv-x="680" d="M404 114H482V0H191V114H268V249L79 600H7V714H283V600H217L337 364L456 600H388V714H663V600H592L404 249V114ZM181 867L446 1017L499 910L223 780L181 867Z"  />
<glyph unicode="&#xDE;" horiz-adv-x="600" d="M23 714H314V600H236V561H307Q366 561 416 554T504 524T563 462T585 358Q585 303 566 265T513 203T434 169T334 158H236V114H314V0H23V114H100V600H23V714ZM317 267Q346 267 370 270T411 283T438 311T448 358Q448 388 437 406T408 434T364 448T311 452H236V267H317Z"  />
<glyph unicode="&#xDF;" horiz-adv-x="600" d="M82 471Q82 496 84 519T92 565T109 608T137 649Q172 690 217 711T302 733Q346 733 384 718T452 675T498 610T515 527Q515 482 494 444T430 388Q466 382 494 365T542 323T571 265T581 197Q581 149 565 110T521 43T455 0T374 -16Q348 -16 322 -11T272 3V117Q309 96 350 96Q372 96 392 104T427 126T450 159T459 202Q459 234 445 256T410 291T361 311T306 317H279V425H295Q337 425 364 451T391 519Q391 560 366 585T304 611Q280 611 260 598T225 566Q208 543 206 518T204 466V0H12V114H82V471Z"  />
<glyph unicode="&#xE0;" horiz-adv-x="660" d="M458 72Q429 27 384 7T286 -14Q229 -14 179 8T92 68T34 156T12 264Q12 322 34 373T93 464T182 525T292 548Q344 548 387 525T458 458V534H649V420H582V114H649V0H458V72ZM297 105Q331 105 361 118T413 153T447 206T460 270Q460 303 447 332T413 382T362 416T299 429Q265 429 236 416T185 381T151 328T138 264Q138 231 150 203T185 152T236 118T297 105ZM447 600L171 725L220 833L488 689L447 600Z"  />
<glyph unicode="&#xE1;" horiz-adv-x="660" d="M458 72Q429 27 384 7T286 -14Q229 -14 179 8T92 68T34 156T12 264Q12 322 34 373T93 464T182 525T292 548Q344 548 387 525T458 458V534H649V420H582V114H649V0H458V72ZM297 105Q331 105 361 118T413 153T447 206T460 270Q460 303 447 332T413 382T362 416T299 429Q265 429 236 416T185 381T151 328T138 264Q138 231 150 203T185 152T236 118T297 105ZM171 687L436 837L489 730L213 600L171 687Z"  />
<glyph unicode="&#xE2;" horiz-adv-x="660" d="M458 72Q429 27 384 7T286 -14Q229 -14 179 8T92 68T34 156T12 264Q12 322 34 373T93 464T182 525T292 548Q344 548 387 525T458 458V534H649V420H582V114H649V0H458V72ZM297 105Q331 105 361 118T413 153T447 206T460 270Q460 303 447 332T413 382T362 416T299 429Q265 429 236 416T185 381T151 328T138 264Q138 231 150 203T185 152T236 118T297 105ZM403 622L326 697L249 622H111L284 790H368L541 622H403Z"  />
<glyph unicode="&#xE3;" horiz-adv-x="660" d="M458 72Q429 27 384 7T286 -14Q229 -14 179 8T92 68T34 156T12 264Q12 322 34 373T93 464T182 525T292 548Q344 548 387 525T458 458V534H649V420H582V114H649V0H458V72ZM297 105Q331 105 361 118T413 153T447 206T460 270Q460 303 447 332T413 382T362 416T299 429Q265 429 236 416T185 381T151 328T138 264Q138 231 150 203T185 152T236 118T297 105ZM515 678Q491 657 463 645T403 633Q382 633 364 637T328 648T295 658T263 663Q243 663 227 656T196 634L132 724Q152 740 179 750T233 761Q253 761 271 757T307 747Q324 741 341 737T379 732Q401 732 420 738T456 759L515 678Z"  />
<glyph unicode="&#xE4;" horiz-adv-x="660" d="M458 72Q429 27 384 7T286 -14Q229 -14 179 8T92 68T34 156T12 264Q12 322 34 373T93 464T182 525T292 548Q344 548 387 525T458 458V534H649V420H582V114H649V0H458V72ZM297 105Q331 105 361 118T413 153T447 206T460 270Q460 303 447 332T413 382T362 416T299 429Q265 429 236 416T185 381T151 328T138 264Q138 231 150 203T185 152T236 118T297 105ZM474 585H352V714H474V585ZM288 585H166V714H288V585Z"  />
<glyph unicode="&#xE5;" horiz-adv-x="660" d="M458 72Q429 27 384 7T286 -14Q229 -14 179 8T92 68T34 156T12 264Q12 322 34 373T93 464T182 525T292 548Q344 548 387 525T458 458V534H649V420H582V114H649V0H458V72ZM297 105Q331 105 361 118T413 153T447 206T460 270Q460 303 447 332T413 382T362 416T299 429Q265 429 236 416T185 381T151 328T138 264Q138 231 150 203T185 152T236 118T297 105ZM310 598Q285 598 264 607T226 633T201 670T192 717Q192 741 201 762T227 799T264 824T310 833Q334 833 355 824T392 798T417 761T426 715Q426 691 417 670T392 633T355 608T310 598ZM309 668Q329 668 342 682T356 717Q356 736 342 749T309 763Q289 763 276 749T262 714Q262 694 276 681T309 668Z"  />
<glyph unicode="&#xE6;" horiz-adv-x="1040" d="M457 82Q432 37 390 12T297 -14Q238 -14 186 8T96 70T35 161T13 273Q13 328 35 378T94 466T181 527T287 550Q338 550 382 528T457 466V534H579V459Q641 550 751 550Q808 550 857 528T944 467T1003 379T1025 272Q1025 251 1024 239T1022 226H588Q593 199 608 177T644 139T690 114T743 105Q782 105 810 118T864 160H1005Q988 121 962 89T901 34T828 -1T745 -14Q694 -14 650 11T579 80V0H457V82ZM299 105Q335 105 366 117T420 152T456 206T469 273Q469 307 455 336T418 388T364 423T301 436Q269 436 239 423T186 388T149 337T135 274Q135 239 147 209T182 155T234 119T299 105ZM900 319Q884 370 842 403T745 436Q687 436 647 405T587 319H900Z"  />
<glyph unicode="&#xE7;" horiz-adv-x="580" d="M559 180Q548 141 525 108T471 50T403 9T327 -11L303 -69L316 -68Q337 -68 354 -76T384 -98T404 -130T411 -168Q411 -217 379 -248T298 -280Q253 -280 223 -251T189 -177H263Q267 -190 276 -198T299 -207Q316 -207 326 -197T336 -170Q336 -154 326 -143T299 -131Q279 -131 265 -147L205 -122L249 -9Q198 -1 155 23T80 84T30 167T12 267Q12 322 32 373T89 464T175 526T281 550Q326 550 365 533T434 483V534H539V356H425Q403 388 368 409Q333 429 292 429Q258 429 229 416T179 381T146 330T134 267Q134 233 146 204T181 153T232 119T295 106Q334 106 370 125T423 180H559Z"  />
<glyph unicode="&#xE8;" horiz-adv-x="580" d="M546 157Q530 119 505 88T446 34T375 -1T294 -14Q235 -14 184 7T95 66T35 155T13 265Q13 324 34 376T92 466T180 527T291 550Q347 550 399 527T491 464Q531 422 548 372T566 264L562 221H130Q136 193 151 170T187 129T235 103T290 93Q330 93 363 108T419 157H546ZM453 315Q437 373 391 407T285 441Q258 441 233 431T186 404T150 364T129 315H453ZM397 600L121 725L170 833L438 689L397 600Z"  />
<glyph unicode="&#xE9;" horiz-adv-x="580" d="M546 157Q530 119 505 88T446 34T375 -1T294 -14Q235 -14 184 7T95 66T35 155T13 265Q13 324 34 376T92 466T180 527T291 550Q347 550 399 527T491 464Q531 422 548 372T566 264L562 221H130Q136 193 151 170T187 129T235 103T290 93Q330 93 363 108T419 157H546ZM453 315Q437 373 391 407T285 441Q258 441 233 431T186 404T150 364T129 315H453ZM131 687L396 837L449 730L173 600L131 687Z"  />
<glyph unicode="&#xEA;" horiz-adv-x="580" d="M546 157Q530 119 505 88T446 34T375 -1T294 -14Q235 -14 184 7T95 66T35 155T13 265Q13 324 34 376T92 466T180 527T291 550Q347 550 399 527T491 464Q531 422 548 372T566 264L562 221H130Q136 193 151 170T187 129T235 103T290 93Q330 93 363 108T419 157H546ZM453 315Q437 373 391 407T285 441Q258 441 233 431T186 404T150 364T129 315H453ZM363 622L286 697L209 622H71L244 790H328L501 622H363Z"  />
<glyph unicode="&#xEB;" horiz-adv-x="580" d="M546 157Q530 119 505 88T446 34T375 -1T294 -14Q235 -14 184 7T95 66T35 155T13 265Q13 324 34 376T92 466T180 527T291 550Q347 550 399 527T491 464Q531 422 548 372T566 264L562 221H130Q136 193 151 170T187 129T235 103T290 93Q330 93 363 108T419 157H546ZM453 315Q437 373 391 407T285 441Q258 441 233 431T186 404T150 364T129 315H453ZM434 585H312V714H434V585ZM248 585H126V714H248V585Z"  />
<glyph unicode="&#xEC;" horiz-adv-x="300" d="M211 114H280V0H19V114H89V420H20V534H211V114ZM268 600L-8 725L41 833L309 689L268 600Z"  />
<glyph unicode="&#xED;" horiz-adv-x="300" d="M211 114H280V0H19V114H89V420H20V534H211V114ZM-8 687L257 837L310 730L34 600L-8 687Z"  />
<glyph unicode="&#xEE;" horiz-adv-x="300" d="M211 114H280V0H19V114H89V420H20V534H211V114ZM224 622L147 697L70 622H-68L105 790H189L362 622H224Z"  />
<glyph unicode="&#xEF;" horiz-adv-x="300" d="M211 114H280V0H19V114H89V420H20V534H211V114ZM305 585H183V714H305V585ZM119 585H-3V714H119V585Z"  />
<glyph unicode="&#xF0;" horiz-adv-x="580" d="M138 547L56 600L193 642Q171 653 146 663T92 681L235 720Q253 715 274 706T322 682L446 720L528 663L402 626Q435 598 466 563T520 485T558 388T572 270Q572 211 550 160T490 70T401 9T291 -14Q232 -14 182 8T93 69T34 159T12 269Q12 327 34 378T95 468T184 528T294 550Q305 550 315 549T337 546Q324 558 311 568T282 590L138 547ZM291 106Q324 106 353 118T405 153T439 204T452 267Q452 300 440 329T407 381T356 417T294 430Q261 430 232 418T180 384T145 333T132 270Q132 237 144 207T177 155T228 119T291 106Z"  />
<glyph unicode="&#xF1;" horiz-adv-x="640" d="M86 420H17V534H208V458Q232 503 274 524T366 546Q410 546 450 529T520 480Q536 462 545 444T559 406T564 367T565 323V114H634V0H374V114H443V287Q443 312 441 336T422 383Q405 405 380 415T328 426Q300 426 274 415T231 381Q214 358 211 327T208 269V114H277V0H17V114H86V420ZM515 678Q491 657 463 645T403 633Q382 633 364 637T328 648T295 658T263 663Q243 663 227 656T196 634L132 724Q152 740 179 750T233 761Q253 761 271 757T307 747Q324 741 341 737T379 732Q401 732 420 738T456 759L515 678Z"  />
<glyph unicode="&#xF2;" horiz-adv-x="580" d="M291 -14Q232 -14 182 8T93 69T34 159T12 269Q12 327 34 378T95 468T184 528T294 550Q352 550 402 528T490 467T550 378T572 270Q572 211 550 160T490 70T401 9T291 -14ZM291 106Q324 106 353 118T405 153T439 204T452 267Q452 300 440 329T407 381T356 417T294 430Q261 430 232 418T180 384T145 333T132 270Q132 237 144 207T177 155T228 119T291 106ZM407 600L131 725L180 833L448 689L407 600Z"  />
<glyph unicode="&#xF3;" horiz-adv-x="580" d="M291 -14Q232 -14 182 8T93 69T34 159T12 269Q12 327 34 378T95 468T184 528T294 550Q352 550 402 528T490 467T550 378T572 270Q572 211 550 160T490 70T401 9T291 -14ZM291 106Q324 106 353 118T405 153T439 204T452 267Q452 300 440 329T407 381T356 417T294 430Q261 430 232 418T180 384T145 333T132 270Q132 237 144 207T177 155T228 119T291 106ZM131 687L396 837L449 730L173 600L131 687Z"  />
<glyph unicode="&#xF4;" horiz-adv-x="580" d="M291 -14Q232 -14 182 8T93 69T34 159T12 269Q12 327 34 378T95 468T184 528T294 550Q352 550 402 528T490 467T550 378T572 270Q572 211 550 160T490 70T401 9T291 -14ZM291 106Q324 106 353 118T405 153T439 204T452 267Q452 300 440 329T407 381T356 417T294 430Q261 430 232 418T180 384T145 333T132 270Q132 237 144 207T177 155T228 119T291 106ZM373 622L296 697L219 622H81L254 790H338L511 622H373Z"  />
<glyph unicode="&#xF5;" horiz-adv-x="580" d="M291 -14Q232 -14 182 8T93 69T34 159T12 269Q12 327 34 378T95 468T184 528T294 550Q352 550 402 528T490 467T550 378T572 270Q572 211 550 160T490 70T401 9T291 -14ZM291 106Q324 106 353 118T405 153T439 204T452 267Q452 300 440 329T407 381T356 417T294 430Q261 430 232 418T180 384T145 333T132 270Q132 237 144 207T177 155T228 119T291 106ZM485 678Q461 657 433 645T373 633Q352 633 334 637T298 648T265 658T233 663Q213 663 197 656T166 634L102 724Q122 740 149 750T203 761Q223 761 241 757T277 747Q294 741 311 737T349 732Q371 732 390 738T426 759L485 678Z"  />
<glyph unicode="&#xF6;" horiz-adv-x="580" d="M291 -14Q232 -14 182 8T93 69T34 159T12 269Q12 327 34 378T95 468T184 528T294 550Q352 550 402 528T490 467T550 378T572 270Q572 211 550 160T490 70T401 9T291 -14ZM291 106Q324 106 353 118T405 153T439 204T452 267Q452 300 440 329T407 381T356 417T294 430Q261 430 232 418T180 384T145 333T132 270Q132 237 144 207T177 155T228 119T291 106ZM434 585H312V714H434V585ZM248 585H126V714H248V585Z"  />
<glyph unicode="&#xF7;" horiz-adv-x="660" d="M76 404H584V312H76V404ZM376 576V467H284V576H376ZM376 249V140H284V249H376Z"  />
<glyph unicode="&#xF8;" horiz-adv-x="600" d="M112 -55L43 -2L95 69L88 76Q73 94 61 110T38 148Q26 175 19 206T12 266Q12 325 34 377T96 467T187 528T299 550Q333 550 366 543T430 519L480 587L551 533L501 467Q538 428 559 380T581 277Q581 217 560 164T501 72T411 9T298 -14Q260 -14 230 -6T165 16L112 -55ZM242 116Q256 111 269 108T296 104Q331 104 361 116T413 150T448 202T461 267Q461 293 451 318T425 363L242 116ZM356 418Q340 424 326 428T295 432Q260 432 231 420T180 385T146 333T133 269Q133 241 143 216T171 168L356 418Z"  />
<glyph unicode="&#xF9;" horiz-adv-x="640" d="M550 114H619V0H438V66Q412 27 368 7T277 -14Q234 -14 196 3T129 54Q100 89 91 127T82 209V420H13V534H204V245Q204 219 207 193T225 145Q240 122 264 111T315 99Q341 99 365 111T405 143Q422 167 425 193T428 248V420H359V534H550V114ZM427 600L151 725L200 833L468 689L427 600Z"  />
<glyph unicode="&#xFA;" horiz-adv-x="640" d="M550 114H619V0H438V66Q412 27 368 7T277 -14Q234 -14 196 3T129 54Q100 89 91 127T82 209V420H13V534H204V245Q204 219 207 193T225 145Q240 122 264 111T315 99Q341 99 365 111T405 143Q422 167 425 193T428 248V420H359V534H550V114ZM151 687L416 837L469 730L193 600L151 687Z"  />
<glyph unicode="&#xFB;" horiz-adv-x="640" d="M550 114H619V0H438V66Q412 27 368 7T277 -14Q234 -14 196 3T129 54Q100 89 91 127T82 209V420H13V534H204V245Q204 219 207 193T225 145Q240 122 264 111T315 99Q341 99 365 111T405 143Q422 167 425 193T428 248V420H359V534H550V114ZM383 622L306 697L229 622H91L264 790H348L521 622H383Z"  />
<glyph unicode="&#xFC;" horiz-adv-x="640" d="M550 114H619V0H438V66Q412 27 368 7T277 -14Q234 -14 196 3T129 54Q100 89 91 127T82 209V420H13V534H204V245Q204 219 207 193T225 145Q240 122 264 111T315 99Q341 99 365 111T405 143Q422 167 425 193T428 248V420H359V534H550V114ZM464 585H342V714H464V585ZM278 585H156V714H278V585Z"  />
<glyph unicode="&#xFD;" horiz-adv-x="600" d="M326 -81H396V-195H136V-81H203L239 7L77 420H7V534H259V420H207L302 159L403 420H351V534H600V420H533L326 -81ZM141 687L406 837L459 730L183 600L141 687Z"  />
<glyph unicode="&#xFE;" horiz-adv-x="660" d="M85 600H17V714H208V450Q237 496 283 518T383 540Q440 540 489 519T575 460T633 372T655 265Q655 210 634 161T577 74T493 14T389 -8Q336 -8 288 12T208 75V-81H277V-195H17V-81H85V600ZM368 105Q401 105 430 117T481 152T516 203T529 265Q529 298 517 327T484 379T433 415T371 428Q337 428 308 416T256 382T220 330T207 266Q207 233 219 204T254 152T305 118T368 105Z"  />
<glyph unicode="&#xFF;" horiz-adv-x="600" d="M326 -81H396V-195H136V-81H203L239 7L77 420H7V534H259V420H207L302 159L403 420H351V534H600V420H533L326 -81ZM454 585H332V714H454V585ZM268 585H146V714H268V585Z"  />
<glyph unicode="&#x131;" horiz-adv-x="300" d="M211 114H280V0H19V114H89V420H20V534H211V114Z"  />
<glyph unicode="&#x152;" horiz-adv-x="1100" d="M626 106Q583 44 524 15T390 -14Q311 -14 244 15T127 94T49 213T20 360Q20 436 49 503T128 622T244 703T387 733Q537 733 626 611V714H1077V503H941V595H761V415H964V308H761V120H941V215H1077V0H626V106ZM156 356Q156 308 174 266T223 191T297 141T388 122Q436 122 478 141T551 192T601 266T619 357Q619 405 602 448T554 525T481 578T390 598Q340 598 298 579T224 526T174 449T156 356Z"  />
<glyph unicode="&#x153;" horiz-adv-x="1040" d="M1012 163Q995 122 968 90T907 34T831 -1T746 -14Q678 -14 620 14T523 100Q488 43 428 15T301 -14Q241 -14 189 8T97 68T36 158T13 269Q13 328 36 379T98 468T189 528T300 550Q376 550 444 510Q458 502 468 495T486 480T501 463T518 441L523 433Q559 491 619 519T748 548Q805 548 856 527T946 468T1008 380T1031 272L1027 226H588Q594 199 608 177T644 139T690 115T744 106Q822 106 873 163H1012ZM899 317Q879 371 839 401T740 431Q714 431 690 422T647 398T613 362T591 317H899ZM297 105Q331 105 361 118T415 153T451 205T464 269Q464 303 451 333T414 385T361 419T296 432Q262 432 232 419T179 384T143 332T130 268Q130 234 143 205T179 153T232 118T297 105Z"  />
<glyph unicode="&#x160;" horiz-adv-x="520" d="M149 212Q149 190 156 170T177 135T210 112T255 103Q300 103 330 129T360 201Q360 228 349 245T320 274T281 293T238 306Q199 317 165 329T98 367Q20 425 20 523Q20 567 37 605T85 670T154 713T236 729Q273 729 306 716T363 674V714H467V522H345Q344 562 318 588T252 615Q212 615 184 592T155 526Q155 500 165 483T193 455T230 438T272 425Q314 414 352 400T425 360Q460 332 478 294T496 210Q496 162 479 121T432 50T361 3T270 -14Q228 -14 194 0T133 47V0H25V212H149ZM304 801H213L42 969H187L266 894L340 969H478L304 801Z"  />
<glyph unicode="&#x161;" horiz-adv-x="460" d="M150 155Q153 119 175 97T236 75Q264 75 286 93T309 141Q309 161 301 173T279 193T250 205T218 214Q183 223 148 234T86 264T41 311T23 384Q23 422 38 452T78 502T135 534T204 545Q240 545 271 536T325 497V534H415V389H297Q295 418 276 435T228 452Q203 452 182 438T160 396Q160 377 168 365T189 346T217 334T248 326Q284 318 319 307T383 277T429 229T447 154Q447 113 431 82T389 30T328 -3T256 -14Q215 -14 180 -1T118 44V0H25V155H150ZM274 622H183L12 790H157L236 715L310 790H448L274 622Z"  />
<glyph unicode="&#x178;" horiz-adv-x="680" d="M404 114H482V0H191V114H268V249L79 600H7V714H283V600H217L337 364L456 600H388V714H663V600H592L404 249V114ZM484 765H362V894H484V765ZM298 765H176V894H298V765Z"  />
<glyph unicode="&#x17D;" horiz-adv-x="560" d="M539 0H20V107L360 595H158V497H37V714H524V611L182 119H414V217H539V0ZM324 801H233L62 969H207L286 894L360 969H498L324 801Z"  />
<glyph unicode="&#x17E;" horiz-adv-x="460" d="M434 534V424L177 114H341V173H448V0H12V98L283 420H131V357H24V534H434ZM274 622H183L12 790H157L236 715L310 790H448L274 622Z"  />
<glyph unicode="&#x192;" horiz-adv-x="580" d="M305 55Q286 -45 230 -93T61 -142L80 -42Q109 -42 127 -35T156 -16T172 14T183 55L241 358H171L192 464H261Q266 489 270 516T282 569T300 619T331 665Q369 704 416 718T519 732L500 633Q458 634 437 618T407 576T394 520T383 463H453L433 358H363L305 55Z"  />
<glyph unicode="&#x2C6;" horiz-adv-x="580" d="M363 631L286 706L209 631H71L244 799H328L501 631H363Z"  />
<glyph unicode="&#x2C7;" horiz-adv-x="580" d="M333 631H242L71 799H216L295 724L369 799H507L333 631Z"  />
<glyph unicode="&#x2DA;" horiz-adv-x="380" d="M190 598Q165 598 144 607T106 633T81 670T72 717Q72 741 81 762T107 799T144 824T190 833Q214 833 235 824T272 798T297 761T306 715Q306 691 297 670T272 633T235 608T190 598ZM189 668Q209 668 222 682T236 717Q236 736 222 749T189 763Q169 763 156 749T142 714Q142 694 156 681T189 668Z"  />
<glyph unicode="&#x2DC;" horiz-adv-x="520" d="M455 678Q431 657 403 645T343 633Q322 633 304 637T268 648T235 658T203 663Q183 663 167 656T136 634L72 724Q92 740 119 750T173 761Q193 761 211 757T247 747Q264 741 281 737T319 732Q341 732 360 738T396 759L455 678Z"  />
<glyph unicode="&#x2013;" horiz-adv-x="500" d="M-6 202V323H506V202H-6Z"  />
<glyph unicode="&#x2014;" horiz-adv-x="1000" d="M-6 202V323H1006V202H-6Z"  />
<glyph unicode="&#x2018;" horiz-adv-x="200" d="M36 590Q36 616 39 639T60 684Q78 706 97 710T143 714H162V646L150 647Q135 647 127 642T114 627T109 607T108 584V570H162V429H36V590Z"  />
<glyph unicode="&#x2019;" horiz-adv-x="200" d="M162 553Q162 527 158 504T137 460Q120 438 101 434T55 429H36V497L48 496Q63 496 71 501T84 516T89 536T90 560V573H35V714H162V553Z"  />
<glyph unicode="&#x201A;" horiz-adv-x="200" d="M162 -19Q162 -46 159 -69T138 -113Q120 -135 101 -139T55 -144H36V-76H49Q64 -76 72 -71T84 -56T89 -36T90 -13V0H36V141H162V-19Z"  />
<glyph unicode="&#x201C;" horiz-adv-x="380" d="M220 590Q220 616 224 639T245 684Q263 706 282 710T328 714H347V646L334 647Q319 647 311 642T299 627T294 607T293 584V570H347V429H220V590ZM35 590Q35 616 38 639T60 684Q78 705 97 709T143 714H162V646L149 647Q134 647 126 642T114 627T109 607T108 583V570H162V429H35V590Z"  />
<glyph unicode="&#x201D;" horiz-adv-x="380" d="M347 553Q347 527 343 504T322 460Q305 438 286 434T240 429H221V497L233 496Q248 496 256 501T269 516T274 536T275 560V573H220V714H347V553ZM162 553Q162 527 158 504T137 460Q120 438 101 434T55 429H36V497L48 496Q63 496 71 501T84 516T89 536T90 560V573H35V714H162V553Z"  />
<glyph unicode="&#x201E;" horiz-adv-x="380" d="M346 -19Q346 -46 343 -69T322 -113Q305 -135 286 -139T240 -144H221V-76H233Q248 -76 256 -71T269 -56T274 -36T275 -13V0H220V141H346V-19ZM161 -20Q161 -46 158 -69T137 -114Q120 -135 101 -139T55 -144H36V-76L48 -77Q63 -77 71 -72T84 -57T89 -37T90 -13V0H35V141H161V-20Z"  />
<glyph unicode="&#x2020;" horiz-adv-x="580" d="M355 -131H224V412H32V507H224V714H355V507H548V412H355V-131Z"  />
<glyph unicode="&#x2021;" horiz-adv-x="580" d="M355 321H547V226H355V-131H223V226H33V321H223V425H33V520H223V714H355V520H547V425H355V321Z"  />
<glyph unicode="&#x2022;" horiz-adv-x="600" d="M459 179H141V536H459V179Z"  />
<glyph unicode="&#x2026;" horiz-adv-x="1000" d="M230 0H104V141H230V0ZM563 0H437V141H563V0ZM896 0H770V141H896V0Z"  />
<glyph unicode="&#x2030;" horiz-adv-x="1280" d="M659 -11Q621 -11 589 3T532 41T495 99T481 169Q481 205 495 237T533 293T589 330T657 344Q694 344 726 331T783 293T822 237T836 168Q836 131 822 99T784 42T728 3T659 -11ZM659 93Q689 93 710 115T731 167Q731 197 710 219T658 241Q628 241 606 220T584 168Q584 137 605 115T659 93ZM218 374Q180 374 148 388T91 426T54 484T40 554Q40 590 54 622T92 677T148 715T216 729Q253 729 285 715T342 677T381 621T395 552Q395 515 382 483T344 426T288 388T218 374ZM218 478Q248 478 269 499T291 551Q291 582 270 603T217 625Q187 625 166 604T144 553Q144 521 165 500T218 478ZM1063 -11Q1025 -11 993 3T936 41T899 99T885 169Q885 205 899 237T937 293T994 330T1062 344Q1098 344 1130 331T1187 293T1226 237T1240 168Q1240 131 1227 99T1189 42T1133 3T1063 -11ZM1063 93Q1094 93 1115 115T1136 167Q1136 197 1115 219T1063 241Q1033 241 1011 220T989 168Q989 137 1010 115T1063 93ZM227 0L549 714H647L326 0H227Z"  />
<glyph unicode="&#x2039;" horiz-adv-x="200" d="M36 220V315L159 457L165 342L101 263L165 185L159 77L36 220Z"  />
<glyph unicode="&#x203A;" horiz-adv-x="200" d="M36 185L99 263L36 342L41 457L165 315V220L41 77L36 185Z"  />
<glyph unicode="&#x20AC;" horiz-adv-x="580" d="M200 282Q203 246 211 215T234 160T271 122T326 108Q381 108 409 142T446 235H561Q552 165 531 118T480 41T410 -1T325 -14Q276 -14 224 10T133 90Q106 129 91 178T69 282H0V339H65V363Q65 371 65 377T66 392H0V449H70Q78 509 97 561T148 651T222 711T320 733Q365 733 401 712T455 645V717H547V485H432Q427 522 416 546T391 585T359 605T322 611Q294 611 273 599T238 564T214 513T201 449H383V392H197Q196 384 196 377T196 362V339H383V282H200Z"  />
<glyph unicode="&#x2122;" horiz-adv-x="980" d="M846 307H783V657L642 307H604L466 657V307H402V714H506L622 427L744 714H846V307ZM330 657H201V307H130V657H0V714H330V657Z"  />

</font>
</defs>
</svg>
