<?xml  version="1.0" encoding="UTF-8"?>
<!DOCTYPE svg PUBLIC "-//W3C//DTD SVG 1.0//EN" "http://www.w3.org/TR/2001/REC-SVG-20010904/DTD/svg10.dtd" >
<svg xmlns="http://www.w3.org/2000/svg" >
<metadata>
<version>1.0</version>
<id><![CDATA[ITC Lubalin Graph W01 Md]]></id>
<vendor>Monotype Imaging Inc.</vendor>
<credits>
<name>Fonts.com WebFonts</name>
<URL>http://webfonts.fonts.com</URL>
<role>Home of the Web fonts</role>
</credits>
<license>
<URL>http://webfonts.fonts.com/Legal</URL>
</license>
<copyright><![CDATA[Font software Copyright 1992 Adobe Systems Incorporated. Typeface designs Copyright 2005 International Typeface Corporation. All rights reserved.]]></copyright>
<trademark><![CDATA[ITC and Lubalin Graph are trademarks of International Typeface Corporation Registered in U.S. Patent and Trademark Office and may be registered in certain other jurisdictions.]]></trademark>
<licensee>
<name></name>
</licensee>
</metadata>
<defs >
<font horiz-adv-x="583" id="5b1a4f6f-183e-4a2b-897c-02b9544ff090">
<font-face font-family="" panose-1="2 0 5 5 3 0 0 2 0 4" ascent="984" descent="-263" units-per-em="1000" alphabetic="0">
</font-face>
<missing-glyph horiz-adv-x="0" />

<glyph unicode="&#xA;" />
<glyph unicode="&#xD;" horiz-adv-x="0" />
<glyph unicode=" " horiz-adv-x="268" />
<glyph unicode="!" horiz-adv-x="229" d="M64 200V714H165V200H64ZM64 0V126H165V0H64Z"  />
<glyph unicode="&quot;" horiz-adv-x="351" d="M292 428H231L219 714H304L292 428ZM120 428H58L46 714H132L120 428Z"  />
<glyph unicode="#" horiz-adv-x="590" d="M518 419H430L411 295H501L491 234H401L365 0H297L333 234H221L184 0H118L154 234H64L74 295H164L184 419H93L103 480H193L230 714H297L261 480H373L410 714H478L440 480H527L518 419ZM251 419L230 295H343L364 419H251Z"  />
<glyph unicode="$" horiz-adv-x="590" d="M527 199Q527 163 515 131T477 73T415 29T328 4V-115H246V2Q216 8 196 19T156 52V0H74V204H167Q168 175 179 152T207 112T248 88T297 79Q324 79 346 88T385 112T409 147T418 191Q418 234 393 264T316 309Q290 317 262 325T207 342Q175 352 150 370T106 412T78 465T68 526Q68 560 80 592T116 649T172 691T246 714V825H328V713Q358 708 375 697T410 664V711H486V531H398Q391 583 358 607T282 631Q231 631 201 601T171 528Q171 497 184 478T218 446T267 425T325 409T385 390T441 362Q482 335 504 292T527 199Z"  />
<glyph unicode="%" horiz-adv-x="931" d="M898 158Q898 113 884 82T846 30T794 1T734 -8Q704 -8 675 1T623 30T586 81T572 158V270Q572 315 586 347T623 399T675 428T734 438Q764 438 793 429T845 399T883 347T898 270V158ZM342 0H271L591 714H661L342 0ZM360 444Q360 399 346 368T308 316T255 287T196 278Q167 278 138 287T86 316T49 367T34 444V556Q34 601 48 632T85 684T137 713T196 722Q226 722 255 713T307 684T345 633T360 556V444ZM825 270Q825 375 734 375Q645 375 645 270V158Q645 55 734 55Q779 55 802 79T825 158V270ZM287 556Q287 659 196 659Q107 659 107 556V444Q107 390 129 366T196 341Q241 341 264 365T287 444V556Z"  />
<glyph unicode="&amp;" horiz-adv-x="713" d="M613 349L539 194L684 52L617 -15L481 119Q465 94 446 70T402 26T343 -5T265 -17Q217 -17 176 -1T106 44T59 110T42 189Q42 232 57 264T95 320T146 362T199 396L173 422Q142 453 127 485T112 558Q112 596 126 628T164 683T220 719T288 732Q323 732 354 719T410 684T448 631T462 565Q462 509 430 468T337 393L471 262L551 439H691V349H613ZM372 560Q372 595 349 620T288 646Q252 646 229 621T206 562Q206 514 247 478L279 448Q323 473 347 499T372 560ZM261 335Q210 309 178 278T145 196Q145 172 154 150T180 111T219 84T269 74Q299 74 320 83T358 107T387 143T412 187L261 335Z"  />
<glyph unicode="&apos;" horiz-adv-x="178" d="M120 428H58L46 714H132L120 428Z"  />
<glyph unicode="(" horiz-adv-x="372" d="M350 -229Q276 -195 218 -144T119 -28T57 110T35 263Q35 349 60 427T129 569T230 680T350 753V630Q255 570 200 474T144 263Q144 205 159 151T201 48T266 -39T350 -105V-229H350Z"  />
<glyph unicode=")" horiz-adv-x="372" d="M338 261Q338 174 312 96T243 -46T142 -157T22 -229V-108Q69 -78 107 -38T173 49T214 150T229 261Q229 318 214 372T172 474T106 561T22 628V753Q96 719 154 668T254 552T316 414T338 261Z"  />
<glyph unicode="*" horiz-adv-x="464" d="M278 533L356 433L304 394L233 499L161 394L108 433L187 533L64 568L85 630L205 587L200 714H265L261 587L381 630L400 568L278 533Z"  />
<glyph unicode="+" horiz-adv-x="590" d="M337 324V118H255V324H42V405H255V611H337V405H548V324H337Z"  />
<glyph unicode="&#x2c;" horiz-adv-x="215" d="M158 -29Q158 -75 139 -103T81 -131H57V-68H67Q85 -68 92 -56T99 -21V0H57V126H158V-29H158Z"  />
<glyph unicode="-" horiz-adv-x="322" d="M29 227V322H295V227H29Z"  />
<glyph unicode="." horiz-adv-x="215" d="M57 0V126H158V0H57Z"  />
<glyph unicode="/" horiz-adv-x="467" d="M42 -193H-38L344 714H424L42 -193Z"  />
<glyph unicode="0" horiz-adv-x="590" d="M549 261Q549 216 541 177T510 101Q477 46 419 16T295 -15Q229 -15 172 16T80 101Q56 139 50 177T44 261V453Q44 498 50 537T80 613Q113 667 171 698T295 730Q360 730 418 699T510 613Q533 576 541 537T549 453V261ZM442 452Q442 479 440 506T427 558Q410 593 375 613T295 634Q250 634 216 614T164 558Q152 533 148 506T144 452V262Q144 234 148 208T164 158Q181 122 215 102T295 81Q339 81 374 101T427 158Q438 182 440 208T442 262V452Z"  />
<glyph unicode="1" horiz-adv-x="590" d="M166 0V90H256V630H135V715H356V90H446V0H166Z"  />
<glyph unicode="2" horiz-adv-x="590" d="M521 501Q521 463 511 434T485 381T446 335T400 291L184 90H419V181H513V0H50V91L337 366Q372 400 392 430T412 499Q412 524 403 547T377 587T336 614T284 625Q259 625 236 617T195 592T165 548T153 484H51Q53 547 74 593T128 669T202 713T287 728Q335 728 378 711T452 663T502 591T521 501Z"  />
<glyph unicode="3" horiz-adv-x="590" d="M528 211Q528 168 511 127T461 55T385 4T288 -15Q242 -15 200 -1T123 41T68 110T42 204H149Q155 172 168 149T199 111T239 89T284 81Q312 81 336 91T379 120T408 162T419 216Q419 246 408 271T376 315T330 343T274 353Q266 353 256 352T239 351V434Q244 434 252 434T265 433Q330 433 360 463T390 538Q390 582 362 612T290 642Q252 642 222 618T187 545H88Q91 590 109 624T155 681T218 716T291 728Q331 728 367 715T430 677T472 620T488 547Q488 500 466 462T399 400Q464 374 496 323T528 211Z"  />
<glyph unicode="4" horiz-adv-x="590" d="M462 183V90H551V0H271V90H361V183H21V267L341 714H462V268H568V183H462ZM361 588L136 268H361V588Z"  />
<glyph unicode="5" horiz-adv-x="590" d="M548 239Q548 184 527 138T470 57T386 4T281 -15Q236 -15 195 -2T121 36T62 101T25 193H136Q155 134 194 108T282 81Q314 81 342 93T392 126T426 175T439 235Q439 266 428 294T396 344T346 377T281 390Q240 390 208 372T152 318L62 342L126 714H494V624H210L173 436Q231 481 308 481Q357 481 401 463T477 411T529 334T548 239Z"  />
<glyph unicode="6" horiz-adv-x="590" d="M555 246Q555 192 535 145T481 62T399 6T299 -15Q246 -15 199 5T117 60T61 144T40 250Q40 295 53 334T93 412L296 714H413L248 473Q263 479 281 485T328 491Q376 491 417 472T489 419T537 342T555 246ZM452 244Q452 276 440 304T407 354T358 387T297 400Q265 400 237 388T188 354T155 305T143 245Q143 213 155 185T188 135T237 102T297 90Q329 90 357 102T406 135T439 184T452 244Z"  />
<glyph unicode="7" horiz-adv-x="590" d="M248 0H132L419 624H172V502H72V714H526V621L248 0Z"  />
<glyph unicode="8" horiz-adv-x="590" d="M533 208Q533 163 516 123T467 52T392 5T296 -13Q245 -13 201 3T125 49T74 117T55 201Q55 262 88 311T190 390Q143 414 120 450T96 539Q96 578 111 612T154 672T219 713T299 728Q339 728 375 714T437 675T478 617T494 544Q494 448 406 395Q471 369 502 319T533 208ZM400 533Q400 555 392 574T369 607T336 629T295 638Q273 638 254 630T221 607T198 574T190 533Q190 512 198 493T221 459T255 437T296 428Q317 428 336 436T369 458T392 492T400 533ZM430 208Q430 236 420 260T391 303T349 331T296 342Q268 342 244 332T202 303T174 261T164 210Q164 182 174 158T202 116T244 88T296 78Q323 78 347 88T390 115T419 157T430 208Z"  />
<glyph unicode="9" horiz-adv-x="590" d="M553 461Q553 416 541 377T502 299L303 0H172L348 242Q333 234 314 226T265 218Q217 218 175 237T102 291T52 370T33 465Q33 520 54 568T111 651T194 707T295 728Q344 728 390 709T473 655T531 571T553 461ZM450 468Q450 501 438 529T403 579T353 612T292 625Q259 625 231 613T181 579T148 528T136 467Q136 434 148 405T182 355T231 322T293 309Q325 309 353 321T403 355T437 406T450 468Z"  />
<glyph unicode=":" horiz-adv-x="215" d="M57 370V496H158V370H57ZM57 0V126H158V0H57Z"  />
<glyph unicode=";" horiz-adv-x="215" d="M57 370V496H158V370H57ZM158 -29Q158 -75 139 -103T81 -131H57V-68H67Q85 -68 92 -56T99 -21V0H57V126H158V-29Z"  />
<glyph unicode="&lt;" horiz-adv-x="590" d="M63 321V404L527 627V530L166 361L527 193V97L63 321Z"  />
<glyph unicode="=" horiz-adv-x="590" d="M42 402V484H548V402H42ZM42 245V326H548V245H42Z"  />
<glyph unicode="&gt;" horiz-adv-x="590" d="M62 97V193L424 361L62 531V625L527 402V320L62 97Z"  />
<glyph unicode="?" horiz-adv-x="515" d="M480 502Q480 462 468 434T438 383T397 341T356 301T322 252T303 188H202Q202 227 211 256T237 310T280 360T337 415Q377 450 377 502Q377 528 367 551T340 591T299 619T248 629Q225 629 203 622T164 598T134 556T120 497H18Q19 551 38 594T89 668T162 715T248 732Q296 732 338 714T411 665T461 592T480 502ZM202 0V126H303V0H202Z"  />
<glyph unicode="@" horiz-adv-x="813" d="M777 406Q777 362 763 318T722 238T658 181T573 159H467L471 185Q452 169 428 159T365 148Q330 148 299 160T244 194T208 250T194 325Q194 370 209 408T250 475T313 520T391 537Q477 537 524 478L532 526H661L650 465H589L547 219H599Q620 219 641 234T678 275T705 335T715 408Q715 466 693 514T632 596T539 650T421 670Q355 670 296 646T194 580T125 481T99 358Q99 292 123 235T189 135T290 68T416 44Q445 44 473 45T532 51T594 65T662 88L678 39Q610 7 549 -4T417 -15Q336 -15 266 13T145 92T64 211T35 358Q35 436 65 504T148 621T269 699T418 728Q496 728 562 705T676 638T750 536T777 406ZM502 359Q502 412 472 443T393 474Q365 474 341 464T300 434T272 389T262 331Q262 304 270 282T294 244T329 220T373 211Q401 211 424 223T465 255T492 302T502 359Z"  />
<glyph unicode="A" horiz-adv-x="772" d="M498 0V90H581L527 218H240L188 90H268V0H-7V90H75L305 624H219V714H435L698 90H779V0H498ZM384 591L268 303H499L384 591Z"  />
<glyph unicode="B" horiz-adv-x="631" d="M589 199Q589 158 576 122T536 59T469 16T373 0H38V90H122V624H38V714H358Q407 714 444 701T506 664T543 608T556 538Q556 486 533 447T461 383Q524 358 556 310T589 199ZM458 520Q458 566 427 592T331 618H229V418H330Q396 418 427 446T458 520ZM480 211Q480 261 446 294T335 328H229V96H338Q411 96 445 126T480 211Z"  />
<glyph unicode="C" horiz-adv-x="768" d="M743 211Q720 155 684 113T603 41T509 -3T406 -18Q331 -18 264 10T145 89T64 208T34 359Q34 438 64 506T145 625T263 703T404 732Q479 732 534 707T636 635V714H726V510H623Q585 568 529 596T406 624Q351 624 303 604T220 549T164 465T143 359Q143 302 163 253T220 168T304 111T406 90Q474 90 532 122T627 211H743H743Z"  />
<glyph unicode="D" horiz-adv-x="756" d="M722 358Q722 288 699 224T631 110T524 30T379 0H38V90H122V624H38V714H379Q458 714 522 685T630 607T698 494T722 358ZM613 358Q613 406 599 452T554 536T477 595T366 618H229V96H364Q430 96 477 119T555 180T599 264T613 358Z"  />
<glyph unicode="E" horiz-adv-x="590" d="M38 0V90H122V624H38V714H555V513H448V618H229V404H468V319H229V96H448V201H555V0H38Z"  />
<glyph unicode="F" horiz-adv-x="571" d="M451 513V618H229V400H464V315H229V90H313V0H38V90H122V624H38V714H558V513H451Z"  />
<glyph unicode="G" horiz-adv-x="822" d="M679 0V131Q631 57 561 20T404 -18Q327 -18 260 11T143 91T63 210T34 358Q34 439 64 507T145 626T263 704T406 732Q480 732 538 707T647 634V714H737V516H621Q540 624 410 624Q354 624 306 604T221 549T164 465T143 359Q143 301 164 252T221 167T305 111T408 90Q488 90 553 133T651 264H344V354H768V0H679Z"  />
<glyph unicode="H" horiz-adv-x="767" d="M456 0V90H541V311H229V90H313V0H38V90H122V624H38V714H313V624H229V411H541V624H456V714H731V624H647V90H731V0H456Z"  />
<glyph unicode="I" horiz-adv-x="350" d="M38 0V90H122V624H38V714H313V624H229V90H313V0H38Z"  />
<glyph unicode="J" horiz-adv-x="524" d="M417 624V201Q417 143 400 102T353 34T287 -5T210 -18Q171 -18 135 -6T70 30T23 93T4 183H116Q122 135 149 113T212 90Q232 90 249 97T280 119T302 158T310 218V624H225V714H501V624H417Z"  />
<glyph unicode="K" horiz-adv-x="704" d="M419 0V90H496L229 347V90H313V0H38V90H122V624H38V714H313V624H229V388L482 624H411V714H688V624H617L338 368L633 90H704V0H419Z"  />
<glyph unicode="L" horiz-adv-x="549" d="M38 0V90H122V624H38V714H313V624H229V96H429V201H536V0H38Z"  />
<glyph unicode="M" horiz-adv-x="1001" d="M688 0V90H773V571L527 0H450L221 568V90H304V0H38V90H124V624H38V714H269L490 164L727 714H965V624H880V90H965V0H688Z"  />
<glyph unicode="N" horiz-adv-x="822" d="M708 624V0H605L229 527V90H313V0H38V90H122V624H38V714H222L601 181V624H516V714H793V624H708Z"  />
<glyph unicode="O" horiz-adv-x="818" d="M785 359Q785 281 756 212T675 92T556 12T410 -18Q332 -18 264 11T144 92T64 211T34 358Q34 436 63 504T144 622T263 702T410 732Q488 732 556 703T675 623T755 504T785 359ZM676 359Q676 414 655 462T598 546T514 603T410 624Q354 624 306 603T221 546T164 462T143 358Q143 302 164 254T221 169T305 111T410 90Q465 90 513 111T598 169T655 254T676 359Z"  />
<glyph unicode="P" horiz-adv-x="611" d="M590 490Q590 448 575 407T531 334T457 283T355 263H229V90H313V0H38V90H122V624H38V714H337Q398 714 445 697T525 650T573 579T590 490ZM481 487Q481 512 473 535T446 577T402 607T339 618H229V359H343Q379 359 405 370T448 399T473 440T481 487Z"  />
<glyph unicode="Q" horiz-adv-x="848" d="M870 -23Q865 -23 856 -23T842 -24Q779 -24 725 -6T621 48Q571 16 521 -1T408 -18Q330 -18 262 11T143 92T63 211T34 359Q34 437 63 505T143 623T262 703T407 732Q483 732 551 703T670 624T751 505T781 358Q781 213 685 110Q710 93 733 83T788 69V142H870V-23ZM671 355Q671 413 650 462T593 547T508 603T405 624Q348 624 300 603T217 546T163 465T143 372Q143 353 146 339T153 313Q185 324 219 330T292 337Q343 337 385 325T465 292T537 243T604 182Q637 219 654 261T671 355ZM537 125Q511 149 485 171T428 211T363 240T285 251Q246 251 220 244T175 228Q212 160 274 125T408 90Q455 90 484 101T537 125Z"  />
<glyph unicode="R" horiz-adv-x="682" d="M486 0L259 321H335Q379 321 412 333T466 365T498 412T509 471Q509 498 501 524T475 571T427 605T356 618H229V90H299V0H38V90H122V624H38V714H364Q428 714 476 695T555 642T602 566T618 476Q618 437 606 400T570 332T510 282T425 257L553 90H640V0H486Z"  />
<glyph unicode="S" horiz-adv-x="534" d="M499 199Q499 152 482 113T435 44T365 -2T278 -19Q228 -19 192 -1T127 55V0H41V204H139Q143 139 178 108T267 76Q323 76 356 110T390 194Q390 229 376 251T336 287T275 312T199 333Q164 343 134 361T82 404T48 460T35 527Q35 571 52 608T97 673T164 716T247 732Q339 732 384 663V714H467V531H371Q367 585 335 613T258 641Q206 641 175 610T144 532Q144 491 163 469T212 434T276 414T343 395Q499 340 499 199Z"  />
<glyph unicode="T" horiz-adv-x="578" d="M469 504V618H344V90H428V0H153V90H238V618H110V504H21V714H559V504H469Z"  />
<glyph unicode="U" horiz-adv-x="704" d="M598 624V228Q598 172 580 127T530 49T452 0T351 -18Q298 -18 254 -1T177 48T126 127T108 234V624H23V714H290V624H215V245Q215 204 226 175T256 127T299 99T351 90Q379 90 404 99T448 127T479 175T491 245V624H415V714H681V624H598Z"  />
<glyph unicode="V" horiz-adv-x="731" d="M657 624L419 0H303L75 624H-7V714H265V624H188L366 148L550 624H470V714H737V624H657Z"  />
<glyph unicode="W" horiz-adv-x="1008" d="M922 624L755 0H648L505 516L360 0H257L78 624H0V714H274V624H189L314 173L461 714H549L699 176L819 624H732V714H1008V624H922Z"  />
<glyph unicode="X" horiz-adv-x="715" d="M431 0V85H513L361 290L210 85H286V0H7V90H88L297 364L101 624H22V714H298V630H223L361 440L497 630H421V714H698V624H622L424 364L631 90H709V0H431Z"  />
<glyph unicode="Y" horiz-adv-x="645" d="M574 624L379 245V90H463V0H188V90H273V245L70 624H-7V714H256V624H181L326 338L467 624H389V714H652V624H574Z"  />
<glyph unicode="Z" horiz-adv-x="571" d="M34 0V85L387 618H145V511H48V714H518V631L162 96H439V202H536V0H34Z"  />
<glyph unicode="[" horiz-adv-x="372" d="M80 -222V744H343V648H187V-126H343V-222H80Z"  />
<glyph unicode="\" horiz-adv-x="508" d="M441 -193L59 714H139L521 -193H441Z"  />
<glyph unicode="]" horiz-adv-x="372" d="M29 -222V-126H187V648H29V744H293V-222H29Z"  />
<glyph unicode="^" horiz-adv-x="590" d="M439 382L295 640L151 382H48L232 716H358L542 382H439Z"  />
<glyph unicode="_" horiz-adv-x="536" d="M0 -153V-63H536V-153H0Z"  />
<glyph unicode="`" horiz-adv-x="536" d="M318 604L113 714L158 784L356 663L318 604Z"  />
<glyph unicode="a" horiz-adv-x="707" d="M491 0V90Q458 45 414 17T299 -11Q243 -11 194 10T109 69T51 156T30 262Q30 317 51 368T108 457T195 518T303 541Q369 541 413 514T491 438V530H665V440H589V90H665V0H491ZM491 267Q491 304 477 336T439 393T381 431T309 445Q271 445 238 431T181 391T142 334T128 264Q128 227 142 195T180 138T237 99T308 85Q345 85 378 99T437 137T476 195T491 267Z"  />
<glyph unicode="b" horiz-adv-x="702" d="M671 264Q671 205 649 155T591 68T506 10T406 -11Q340 -11 294 16T212 95V0H38V90H115V624H38V714H212V435Q246 486 291 513T399 541Q454 541 503 520T589 461T649 373T671 264ZM573 266Q573 303 560 335T522 392T465 430T392 444Q353 444 320 431T261 393T222 337T207 268Q207 230 221 197T261 139T319 100T391 85Q431 85 464 99T522 137T559 195T573 266Z"  />
<glyph unicode="c" horiz-adv-x="584" d="M570 173Q553 127 526 92T464 33T389 -3T309 -15Q253 -15 202 6T113 66T53 155T30 265Q30 323 51 373T110 462T196 522T299 544Q350 544 391 525T468 469V530H550V362H462Q432 405 393 426T308 448Q270 448 238 434T181 395T142 337T128 264Q128 226 142 193T180 135T238 96T310 81Q359 81 399 104T463 173H570H570Z"  />
<glyph unicode="d" horiz-adv-x="708" d="M496 0V95Q461 46 415 18T302 -11Q247 -11 198 10T111 67T52 154T30 265Q30 323 52 373T112 461T198 520T299 541Q420 541 496 434V624H418V714H593V90H670V0H496ZM498 267Q498 305 484 337T444 394T386 431T314 445Q275 445 242 431T183 393T143 336T128 265Q128 227 142 195T181 138T240 99T313 85Q351 85 385 99T444 137T483 195T498 267Z"  />
<glyph unicode="e" horiz-adv-x="611" d="M581 262Q581 254 580 244T578 229H125Q133 188 152 158T195 109T249 81T308 72Q359 72 395 92T459 153H560Q523 72 456 29T309 -15Q253 -15 203 6T114 64T53 152T30 264Q30 323 52 374T111 463T199 522T305 544Q360 544 410 524T498 466T558 377T581 262ZM492 304Q483 343 464 371T420 419T365 448T305 458Q276 458 247 448T194 419T152 370T125 304H492Z"  />
<glyph unicode="f" horiz-adv-x="327" d="M216 440V90H296V0H42V90H119V440H42V530H119Q120 576 128 612T159 674T218 714T313 732V646Q276 644 257 633T228 604T218 568T216 530H313V440H216Z"  />
<glyph unicode="g" horiz-adv-x="702" d="M587 440V61Q587 1 573 -46T518 -135Q478 -174 427 -194T314 -215Q269 -215 229 -204T156 -172T99 -121T63 -51H175Q198 -93 235 -114T316 -135Q350 -135 382 -123T438 -87T477 -30T492 44V97Q478 75 461 56T420 21T368 -2T301 -11Q246 -11 197 10T111 69T52 156T30 264Q30 320 51 370T110 458T197 518T304 541Q377 541 421 511T497 434V530H664V440H587ZM498 268Q498 305 484 337T444 394T386 431T313 445Q274 445 240 432T182 394T143 338T128 268Q128 230 141 197T179 139T238 100T313 85Q351 85 385 99T444 138T483 196T498 268Z"  />
<glyph unicode="h" horiz-adv-x="676" d="M404 0V90H481V270Q481 291 481 311T476 347Q465 392 431 418T349 445Q323 445 298 437T254 409T224 359T212 285V90H290V0H38V90H115V624H38V714H212V440Q242 489 282 515T378 541Q417 541 453 527T516 482T561 407T578 301V90H656V0H404Z"  />
<glyph unicode="i" horiz-adv-x="331" d="M119 596V714H216V596H119ZM41 0V90H119V440H41V530H216V90H293V0H41Z"  />
<glyph unicode="j" horiz-adv-x="292" d="M115 596V714H212V596H115ZM212 -4Q212 -98 166 -144T25 -201V-110Q58 -107 76 -94T102 -61T113 -16T115 38V440H38V530H212V-4Z"  />
<glyph unicode="k" horiz-adv-x="599" d="M319 0V90H377L212 263V90H275V0H38V90H115V624H38V714H212V293L375 447H307V530H564V440H490L321 280L505 90H595V0H319Z"  />
<glyph unicode="l" horiz-adv-x="333" d="M38 0V90H120V624H42V714H217V90H295V0H38Z"  />
<glyph unicode="m" horiz-adv-x="1016" d="M743 0V90H821V296Q821 326 816 352T791 402Q774 423 749 434T696 445Q671 445 648 437T606 411T576 367T565 303V90H642V0H390V90H468V293Q468 373 435 409T344 445Q318 445 295 436T255 408T227 361T216 297V90H293V0H41V90H119V440H41V530H208V445Q266 541 366 541Q422 541 466 513T538 425Q565 484 613 512T718 541Q772 541 819 515T891 444Q908 415 912 384T917 320V90H994V0H743Z"  />
<glyph unicode="n" horiz-adv-x="685" d="M412 0V90H490V292Q490 333 479 362T448 409T405 436T353 445Q324 445 299 436T256 408T227 359T216 285V90H293V0H41V90H119V440H41V530H216V446Q243 494 285 517T381 541Q414 541 444 532T499 505T543 465T573 413Q582 389 584 366T587 322V90H664V0H412Z"  />
<glyph unicode="o" horiz-adv-x="617" d="M587 267Q587 209 565 158T505 68T416 8T308 -15Q250 -15 200 7T112 67T52 155T30 264Q30 321 52 372T112 461T200 522T309 544Q367 544 417 522T505 463T565 375T587 267ZM488 265Q488 303 474 336T436 394T380 433T309 448Q271 448 238 434T181 394T142 336T128 264Q128 226 142 193T180 135T238 96T309 81Q346 81 378 95T435 135T474 193T488 265Z"  />
<glyph unicode="p" horiz-adv-x="707" d="M673 264Q673 208 653 159T598 71T514 11T411 -11Q338 -11 292 17T212 93V-102H290V-191H38V-102H114V440H38V530H212V431Q246 486 293 513T405 541Q462 541 511 519T596 459T652 371T673 264ZM574 268Q574 305 561 337T523 394T467 431T395 445Q357 445 324 432T266 395T227 339T212 267Q212 227 227 194T267 136T325 99T395 85Q433 85 465 99T522 138T560 196T574 268Z"  />
<glyph unicode="q" horiz-adv-x="707" d="M417 -191V-102H494V93Q461 46 414 18T296 -11Q240 -11 192 11T107 72T51 159T30 264Q30 320 51 370T108 458T195 518T302 541Q429 541 494 431V530H669V440H591V-102H669V-191H417ZM496 267Q496 304 482 336T443 393T384 431T311 445Q272 445 239 432T181 394T142 338T128 268Q128 230 141 197T180 139T238 100T313 85Q351 85 384 99T442 137T481 195T496 267Z"  />
<glyph unicode="r" horiz-adv-x="394" d="M375 436Q297 431 257 387T216 271V90H293V0H41V90H119V440H41V530H208V431Q222 458 238 476T274 507T319 525T375 534V436H375Z"  />
<glyph unicode="s" horiz-adv-x="462" d="M429 150Q429 117 416 88T379 36T322 2T248 -11Q200 -11 167 5T108 53V0H35V155H132Q147 64 235 64Q277 64 301 86T326 143Q326 196 264 213Q221 225 181 236T110 266T59 312T40 387Q40 418 52 446T86 495T140 528T210 541Q259 541 285 526T330 490V530H402V390H308Q304 428 282 446T224 465Q188 465 166 445T143 393Q143 365 160 348T205 324Q246 313 286 303T358 275T409 228T429 150Z"  />
<glyph unicode="t" horiz-adv-x="339" d="M115 0V440H23V530H115V714H212V530H314V440H212V90H321V0H115Z"  />
<glyph unicode="u" horiz-adv-x="676" d="M468 0V78Q437 32 393 11T299 -11Q260 -11 224 3T160 44T115 111T98 202V440H21V530H195V233Q195 194 206 166T235 120T277 94T326 85Q350 85 374 93T417 118T449 164T461 234V440H383V530H558V90H635V0H468Z"  />
<glyph unicode="v" horiz-adv-x="590" d="M525 440L347 0H244L68 440H-7V530H238V440H175L295 120L422 440H355V530H598V440H525Z"  />
<glyph unicode="w" horiz-adv-x="856" d="M784 440L629 0H533L428 336L304 0H211L69 440H-7V530H235V440H166L264 116L391 496H470L583 120L688 440H617V530H863V440H784Z"  />
<glyph unicode="x" d="M331 0V80H382L292 202L201 80H252V0H7V90H80L225 267L81 440H12V530H252V455H200L292 333L382 455H326V530H567V440H498L358 267L503 90H576V0H331Z"  />
<glyph unicode="y" horiz-adv-x="589" d="M524 440L297 -105H373V-195H121V-105H196L240 2L67 440H-7V530H239V440H173L292 124L418 440H353V530H596V440H524Z"  />
<glyph unicode="z" horiz-adv-x="474" d="M27 0V79L311 440H127V359H41V530H431V442L158 90H362V167H445V0H27Z"  />
<glyph unicode="{" horiz-adv-x="372" d="M206 -219Q134 -219 107 -179T80 -61V131Q80 172 68 194T19 227V297Q54 307 67 329T80 393V584Q80 662 107 702T206 743H335V673Q324 673 317 673T299 674Q265 674 243 670T209 654T192 623T187 573V388Q187 358 183 337T169 302T148 279T121 262Q136 254 148 245T169 222T182 187T187 136V-50Q187 -79 191 -98T208 -129T241 -145T298 -150Q309 -150 316 -150T335 -149V-219H206Z"  />
<glyph unicode="|" horiz-adv-x="257" d="M80 -178V714H177V-178H80Z"  />
<glyph unicode="}" horiz-adv-x="372" d="M353 227Q318 216 306 195T293 131V-61Q293 -100 287 -129T267 -179T228 -209T167 -219H38V-149Q48 -149 55 -149T73 -150Q108 -150 130 -146T165 -130T182 -100T187 -50V136Q187 166 191 186T204 221T224 245T251 262Q236 269 224 278T204 302T192 337T187 388V573Q187 602 183 621T166 652T131 669T74 674Q63 674 56 674T38 673V743H167Q203 743 227 733T266 702T287 653T293 584V393Q293 350 306 329T353 297V227H353Z"  />
<glyph unicode="~" horiz-adv-x="590" d="M553 413Q535 377 518 353T481 314T436 294T378 288Q363 288 337 297T283 319T227 340T183 350Q148 350 129 330T92 278L37 314Q65 377 98 411T185 446Q215 446 244 436T302 413T356 390T408 379Q443 379 461 399T497 446L553 413H553Z"  />
<glyph unicode="&#xA0;" horiz-adv-x="268" />
<glyph unicode="&#xA1;" horiz-adv-x="229" d="M64 404V530H165V404H64ZM64 -185V330H165V-185H64Z"  />
<glyph unicode="&#xA2;" horiz-adv-x="590" d="M519 278Q496 218 456 183T347 128V34H264V132Q218 140 183 161T123 213T86 280T73 355Q73 394 86 431T123 499T183 552T264 583V680H347V584Q380 576 399 565T442 530V576H505V429H415Q397 458 368 474T305 490Q277 490 253 480T210 451T182 409T171 356Q171 328 181 304T210 262T252 234T305 223Q339 223 365 237T412 278H519H519Z"  />
<glyph unicode="&#xA3;" horiz-adv-x="590" d="M567 194Q567 154 553 119T512 57T446 16T358 0H67V85H160Q185 98 198 119T211 181Q211 220 193 250T145 315H24V395H93Q82 416 73 441T64 505Q64 557 82 599T130 670T199 714T280 730Q328 730 356 710T408 661V714H505V527H408Q405 555 395 576T368 611T333 632T295 639Q271 639 249 629T210 601T183 556T173 497Q173 467 181 443T206 395H407V315H263Q284 289 302 261T320 188Q320 151 308 128T278 85H349Q414 85 444 119T474 205Q474 217 472 226T467 242H559Q567 219 567 194Z"  />
<glyph unicode="&#xA4;" horiz-adv-x="590" d="M507 95L446 155Q411 130 375 117T296 104Q254 104 218 117T147 155L86 95L33 147L93 208Q46 276 46 355Q46 397 58 433T96 505L35 566L87 618L148 558Q182 582 218 594T297 607Q338 607 374 595T444 559L505 619L558 566L497 505Q547 438 547 358Q547 277 498 208L559 148L507 95ZM458 356Q458 390 445 420T410 473T359 508T296 521Q262 521 232 508T180 473T146 420T133 355Q133 321 146 291T181 239T233 203T297 190Q330 190 359 203T410 238T445 291T458 356Z"  />
<glyph unicode="&#xA5;" horiz-adv-x="590" d="M518 624L455 484H539V413H423L373 305H519V235H349V90H433V0H158V90H242V235H72V305H216L166 413H50V484H133L69 624H2V714H244V624H172L297 341L416 624H342V714H584V624H518Z"  />
<glyph unicode="&#xA6;" horiz-adv-x="257" d="M80 353V714H177V353H80ZM80 -178V165H177V-178H80Z"  />
<glyph unicode="&#xA7;" horiz-adv-x="590" d="M509 -17Q509 -59 494 -93T452 -151T385 -188T299 -201Q199 -201 142 -150T84 -4H184V-10Q184 -61 217 -88T301 -115Q354 -115 382 -87T411 -17Q411 19 392 39T344 70T282 90T218 110Q162 134 133 175T103 269Q103 292 110 315T131 358T165 393T212 417Q169 439 143 471T116 559Q116 595 129 626T167 680T226 716T302 730Q338 730 371 720T431 690T473 640T491 567H400Q396 605 369 624T307 644Q266 644 241 620T215 558Q215 532 226 515T258 485T310 459T381 431Q431 411 465 369T499 270Q499 228 476 190T404 132Q509 88 509 -17ZM406 269Q406 290 398 307T375 337T342 357T302 364Q281 364 263 357T230 338T207 308T198 270Q198 250 206 233T229 204T262 185T302 178Q322 178 341 185T374 204T397 232T406 269Z"  />
<glyph unicode="&#xA8;" horiz-adv-x="536" d="M297 618V750H394V618H297ZM142 618V750H239V618H142Z"  />
<glyph unicode="&#xA9;" horiz-adv-x="831" d="M788 358Q788 280 759 212T678 93T560 13T416 -17Q338 -17 270 12T151 93T71 212T42 358Q42 434 71 502T150 621T269 701T416 731Q493 731 560 702T678 622T758 503T788 358ZM737 358Q737 425 712 484T643 588T541 658T416 684Q348 684 290 658T187 588T118 485T93 358Q93 290 118 231T188 127T290 56T416 30Q481 30 539 55T642 125T711 229T737 358ZM611 275Q583 207 530 173T417 139Q375 139 337 155T269 200T222 268T205 355Q205 400 222 439T268 506T336 551T416 568Q463 568 492 553T543 518V558H600V435H537Q515 468 484 483T417 499Q387 499 361 489T316 459T285 413T273 355Q273 323 284 297T315 250T361 219T417 208Q453 208 484 224T538 275H611Z"  />
<glyph unicode="&#xAA;" horiz-adv-x="394" d="M270 428V469Q253 450 230 437T170 423Q139 423 112 435T65 467T33 515T21 573Q21 604 32 632T64 681T111 714T171 727Q209 727 231 714T270 680V721H371V665H328V484H371V428H270ZM21 311V356H371V311H21ZM270 576Q270 595 263 612T242 642T212 662T175 669Q155 669 138 662T108 641T88 611T81 574Q81 555 88 538T108 509T138 489T175 481Q194 481 211 488T242 508T262 538T270 576Z"  />
<glyph unicode="&#xAB;" horiz-adv-x="358" d="M301 93L184 240V307L301 458L310 367L241 271L310 175L301 93ZM159 84L39 240V310L159 465L168 377L95 271L168 167L159 84Z"  />
<glyph unicode="&#xAC;" horiz-adv-x="590" d="M466 225V402H42V484H548V225H466Z"  />
<glyph unicode="&#xAD;" horiz-adv-x="322" d="M29 227V322H295V227H29Z"  />
<glyph unicode="&#xAE;" horiz-adv-x="831" d="M788 358Q788 280 759 212T678 93T560 13T416 -17Q338 -17 270 12T151 93T71 212T42 358Q42 434 71 502T150 621T269 701T416 731Q493 731 560 702T678 622T758 503T788 358ZM737 358Q737 425 712 484T643 588T541 658T416 684Q348 684 290 658T187 588T118 485T93 358Q93 290 118 231T188 127T290 56T416 30Q481 30 539 55T642 125T711 229T737 358ZM496 159L364 344H412Q460 344 483 367T507 425Q507 440 503 454T489 479T463 496T424 503H358V215H396V159H242V215H290V507H242V564H429Q465 564 492 553T538 524T565 480T574 428Q574 404 567 382T546 343T513 315T470 302L537 215H588V159H496Z"  />
<glyph unicode="&#xAF;" horiz-adv-x="536" d="M104 645V720H430V645H104Z"  />
<glyph unicode="&#xB0;" horiz-adv-x="391" d="M344 574Q344 544 333 517T301 471T253 440T195 428Q164 428 137 439T90 471T59 517T47 574Q47 605 58 631T90 678T137 709T195 721Q226 721 253 710T300 678T332 632T344 574ZM293 574Q293 594 285 611T264 642T233 662T195 670Q155 670 127 643T98 574Q98 554 105 537T126 507T157 487T195 479Q215 479 232 486T263 506T285 536T293 574Z"  />
<glyph unicode="&#xB1;" horiz-adv-x="590" d="M337 358V153H255V358H42V442H255V646H337V442H548V358H337ZM42 17V98H548V17H42Z"  />
<glyph unicode="&#xB2;" horiz-adv-x="393" d="M341 584Q341 561 335 544T318 512T293 484T264 458L136 347H270V400H336V286H38V344L219 508Q240 527 253 544T267 584Q267 613 245 633T188 654Q157 654 134 635T109 571H38Q39 611 52 640T87 687T135 715T190 724Q221 724 249 713T297 683T329 639T341 584Z"  />
<glyph unicode="&#xB3;" horiz-adv-x="393" d="M345 413Q345 387 334 363T302 319T254 289T191 278Q161 278 134 286T85 312T49 354T33 413H107Q114 375 136 358T188 341Q223 341 247 363T271 417Q271 452 245 472T183 493Q179 493 170 493T156 492V549Q159 549 166 549T177 548Q215 548 234 564T253 606Q253 630 236 647T191 664Q168 664 151 651T131 607H62Q63 636 75 657T105 693T147 715T194 722Q221 722 244 714T284 691T311 656T321 612Q321 585 308 562T270 525Q307 509 326 479T345 413Z"  />
<glyph unicode="&#xB4;" horiz-adv-x="536" d="M219 604L181 663L379 784L424 714L219 604Z"  />
<glyph unicode="&#xB5;" horiz-adv-x="590" d="M423 0V82Q402 37 372 12T293 -13Q245 -13 217 8T167 62V-182H70V514H167V229Q167 199 170 172T187 120Q203 91 232 77T295 62Q321 62 344 71T384 102T412 156T423 236V514H520V0H423Z"  />
<glyph unicode="&#xB6;" horiz-adv-x="590" d="M388 -191V624H305V-191H137V-102H227V355H216Q175 355 141 367T82 403T43 458T29 532Q29 618 86 666T262 714H556V624H467V-102H556V-191H388Z"  />
<glyph unicode="&#xB7;" horiz-adv-x="215" d="M59 304V424H156V304H59Z"  />
<glyph unicode="&#xB8;" horiz-adv-x="536" d="M370 -150Q370 -193 343 -223T267 -253Q233 -253 205 -234T167 -171L228 -161Q233 -175 242 -182T268 -190Q285 -190 296 -179T308 -152Q308 -134 297 -123T268 -112Q246 -112 233 -128L188 -105L228 0H286L264 -62Q276 -59 286 -59Q305 -59 321 -67T347 -87T364 -116T370 -150Z"  />
<glyph unicode="&#xB9;" horiz-adv-x="393" d="M112 286V347H166V658H91V714H239V347H295V286H112Z"  />
<glyph unicode="&#xBA;" horiz-adv-x="394" d="M350 576Q350 544 338 516T305 467T256 434T196 421Q164 421 136 433T87 466T54 514T42 574Q42 605 54 633T88 682T137 715T198 728Q229 728 257 716T305 683T338 635T350 576ZM22 311V356H372V311H22ZM291 576Q291 595 284 612T263 642T233 662T196 670Q176 670 160 663T130 642T110 612T103 574Q103 554 110 537T130 507T159 487T196 479Q215 479 232 487T263 508T283 538T291 576Z"  />
<glyph unicode="&#xBB;" horiz-adv-x="358" d="M198 84L188 167L262 271L188 377L198 465L318 310V240L198 84ZM56 93L46 175L115 271L46 367L56 458L172 307V240L56 93Z"  />
<glyph unicode="&#xBC;" horiz-adv-x="888" d="M802 119V61H856V0H673V61H729V119H516V162L718 428H802V175H867V119H802ZM298 0H228L548 714H616L298 0ZM69 286V347H123V658H48V714H196V347H252V286H69ZM729 347L598 175H729V347Z"  />
<glyph unicode="&#xBD;" horiz-adv-x="931" d="M837 299Q837 276 831 259T814 226T789 198T759 172L631 61H767V114H832V0H533V58L715 222Q735 240 748 257T762 298Q762 327 741 347T684 368Q653 368 629 350T604 286H534Q535 326 549 355T584 402T632 429T687 438Q718 438 745 427T793 398T825 354T837 299ZM298 0H228L548 714H616L298 0ZM69 286V347H123V658H48V714H196V347H252V286H69Z"  />
<glyph unicode="&#xBE;" horiz-adv-x="931" d="M845 119V61H899V0H716V61H772V119H559V162L761 428H845V175H910V119H845ZM341 0H271L591 714H659L341 0ZM345 413Q345 387 334 363T302 319T254 289T191 278Q161 278 134 286T85 312T49 354T33 413H107Q114 375 136 358T188 341Q223 341 247 363T271 417Q271 452 245 472T183 493Q179 493 170 493T156 492V549Q159 549 166 549T177 548Q215 548 234 564T253 606Q253 630 236 647T191 664Q168 664 151 651T131 607H62Q63 636 75 657T105 693T147 715T194 722Q221 722 244 714T284 691T311 656T321 612Q321 585 308 562T270 525Q307 509 326 479T345 413ZM772 347L641 175H772V347Z"  />
<glyph unicode="&#xBF;" horiz-adv-x="515" d="M212 404V530H313V404H212ZM497 33Q496 -20 477 -63T426 -138T353 -185T265 -202Q218 -202 176 -185T103 -136T54 -63T36 27Q36 67 48 95T78 146T119 188T160 228T194 277T212 342H313Q313 303 304 274T277 220T235 170T178 115Q139 79 139 28Q139 2 149 -21T176 -62T216 -90T265 -101Q288 -101 310 -93T351 -69T381 -27T395 33H497Z"  />
<glyph unicode="&#xC0;" horiz-adv-x="772" d="M498 0V90H581L527 218H240L188 90H268V0H-7V90H75L305 624H219V714H435L698 90H779V0H498ZM384 591L268 303H499L384 591ZM427 771L222 881L267 951L465 830L427 771Z"  />
<glyph unicode="&#xC1;" horiz-adv-x="772" d="M498 0V90H581L527 218H240L188 90H268V0H-7V90H75L305 624H219V714H435L698 90H779V0H498ZM384 591L268 303H499L384 591ZM325 771L287 830L485 951L530 881L325 771Z"  />
<glyph unicode="&#xC2;" horiz-adv-x="772" d="M498 0V90H581L527 218H240L188 90H268V0H-7V90H75L305 624H219V714H435L698 90H779V0H498ZM384 591L268 303H499L384 591ZM448 778L369 860L290 778H185L335 937H403L553 778H448Z"  />
<glyph unicode="&#xC3;" horiz-adv-x="772" d="M498 0V90H581L527 218H240L188 90H268V0H-7V90H75L305 624H219V714H435L698 90H779V0H498ZM384 591L268 303H499L384 591ZM531 859Q505 827 477 815T433 802Q406 802 386 807T350 820T320 832T291 838Q268 838 255 827T225 800L188 859Q203 877 223 895T277 913Q297 913 315 908T351 895T386 883T419 877Q439 877 457 889T493 918L531 859H531Z"  />
<glyph unicode="&#xC4;" horiz-adv-x="772" d="M498 0V90H581L527 218H240L188 90H268V0H-7V90H75L305 624H219V714H435L698 90H779V0H498ZM384 591L268 303H499L384 591ZM398 791V923H495V791H398ZM243 791V923H340V791H243Z"  />
<glyph unicode="&#xC5;" horiz-adv-x="772" d="M498 0V90H581L527 218H240L188 90H268V0H-7V90H75L305 624H219V714H435L698 90H779V0H498ZM384 591L268 303H499L384 591ZM481 871Q481 848 473 828T449 793T414 769T370 760Q347 760 327 769T291 793T266 829T257 873Q257 896 266 916T290 952T326 975T370 984Q393 984 413 976T449 952T472 916T481 871ZM424 873Q424 896 408 911T370 926Q347 926 331 910T315 871Q315 848 331 833T370 818Q392 818 408 834T424 873Z"  />
<glyph unicode="&#xC6;" horiz-adv-x="961" d="M408 0V78H492V222H258L160 78H245V0H-29V90H55L421 624H338V714H926V513H819V618H599V404H839V319H599V96H819V201H926V0H408ZM492 581L307 302H492V581Z"  />
<glyph unicode="&#xC7;" horiz-adv-x="768" d="M743 211Q699 106 612 47T408 -18L388 -67Q402 -65 411 -65T427 -64Q434 -64 446 -69T471 -85T493 -114T502 -156Q502 -177 495 -196T473 -231T438 -254T390 -263Q352 -263 324 -242T287 -182L349 -168Q362 -200 393 -200Q408 -200 421 -189T434 -160Q434 -139 420 -129T390 -119Q370 -119 359 -136L309 -112L347 -13Q269 4 211 40T113 125T54 234T34 359Q34 438 64 506T145 625T263 703T404 732Q479 732 534 707T636 635V714H726V510H623Q585 568 529 596T406 624Q351 624 303 604T220 549T164 465T143 359Q143 302 163 253T220 168T304 111T406 90Q474 90 532 122T627 211H743H743Z"  />
<glyph unicode="&#xC8;" horiz-adv-x="590" d="M38 0V90H122V624H38V714H555V513H448V618H229V404H468V319H229V96H448V201H555V0H38ZM366 771L161 881L206 951L404 830L366 771Z"  />
<glyph unicode="&#xC9;" horiz-adv-x="590" d="M38 0V90H122V624H38V714H555V513H448V618H229V404H468V319H229V96H448V201H555V0H38ZM274 771L236 830L434 951L479 881L274 771Z"  />
<glyph unicode="&#xCA;" horiz-adv-x="590" d="M38 0V90H122V624H38V714H555V513H448V618H229V404H468V319H229V96H448V201H555V0H38ZM386 778L307 860L228 778H123L273 937H341L491 778H386Z"  />
<glyph unicode="&#xCB;" horiz-adv-x="590" d="M38 0V90H122V624H38V714H555V513H448V618H229V404H468V319H229V96H448V201H555V0H38ZM335 791V923H432V791H335ZM180 791V923H277V791H180Z"  />
<glyph unicode="&#xCC;" horiz-adv-x="350" d="M38 0V90H122V624H38V714H313V624H229V90H313V0H38ZM222 771L17 881L62 951L260 830L222 771Z"  />
<glyph unicode="&#xCD;" horiz-adv-x="350" d="M38 0V90H122V624H38V714H313V624H229V90H313V0H38ZM131 771L93 830L291 951L336 881L131 771Z"  />
<glyph unicode="&#xCE;" horiz-adv-x="350" d="M38 0V90H122V624H38V714H313V624H229V90H313V0H38ZM255 778L176 860L97 778H-8L142 937H210L360 778H255Z"  />
<glyph unicode="&#xCF;" horiz-adv-x="350" d="M38 0V90H122V624H38V714H313V624H229V90H313V0H38ZM206 791V923H303V791H206ZM51 791V923H148V791H51Z"  />
<glyph unicode="&#xD0;" horiz-adv-x="756" d="M722 358Q722 288 699 224T631 110T524 30T379 0H38V90H122V318H38V407H122V624H38V714H379Q458 714 522 685T630 607T698 494T722 358ZM613 358Q613 406 599 452T554 536T477 595T366 618H229V407H407V318H229V96H364Q430 96 477 119T555 180T599 264T613 358Z"  />
<glyph unicode="&#xD1;" horiz-adv-x="822" d="M708 624V0H605L229 527V90H313V0H38V90H122V624H38V714H222L601 181V624H516V714H793V624H708ZM594 859Q568 827 540 815T496 802Q469 802 449 807T413 820T383 832T354 838Q331 838 318 827T288 800L251 859Q266 877 286 895T340 913Q360 913 378 908T414 895T449 883T482 877Q502 877 520 889T556 918L594 859H594Z"  />
<glyph unicode="&#xD2;" horiz-adv-x="818" d="M785 359Q785 281 756 212T675 92T556 12T410 -18Q332 -18 264 11T144 92T64 211T34 358Q34 436 63 504T144 622T263 702T410 732Q488 732 556 703T675 623T755 504T785 359ZM676 359Q676 414 655 462T598 546T514 603T410 624Q354 624 306 603T221 546T164 462T143 358Q143 302 164 254T221 169T305 111T410 90Q465 90 513 111T598 169T655 254T676 359ZM475 771L270 881L315 951L513 830L475 771Z"  />
<glyph unicode="&#xD3;" horiz-adv-x="818" d="M785 359Q785 281 756 212T675 92T556 12T410 -18Q332 -18 264 11T144 92T64 211T34 358Q34 436 63 504T144 622T263 702T410 732Q488 732 556 703T675 623T755 504T785 359ZM676 359Q676 414 655 462T598 546T514 603T410 624Q354 624 306 603T221 546T164 462T143 358Q143 302 164 254T221 169T305 111T410 90Q465 90 513 111T598 169T655 254T676 359ZM349 771L311 830L509 951L554 881L349 771Z"  />
<glyph unicode="&#xD4;" horiz-adv-x="818" d="M785 359Q785 281 756 212T675 92T556 12T410 -18Q332 -18 264 11T144 92T64 211T34 358Q34 436 63 504T144 622T263 702T410 732Q488 732 556 703T675 623T755 504T785 359ZM676 359Q676 414 655 462T598 546T514 603T410 624Q354 624 306 603T221 546T164 462T143 358Q143 302 164 254T221 169T305 111T410 90Q465 90 513 111T598 169T655 254T676 359ZM485 778L406 860L327 778H222L372 937H440L590 778H485Z"  />
<glyph unicode="&#xD5;" horiz-adv-x="818" d="M785 359Q785 281 756 212T675 92T556 12T410 -18Q332 -18 264 11T144 92T64 211T34 358Q34 436 63 504T144 622T263 702T410 732Q488 732 556 703T675 623T755 504T785 359ZM676 359Q676 414 655 462T598 546T514 603T410 624Q354 624 306 603T221 546T164 462T143 358Q143 302 164 254T221 169T305 111T410 90Q465 90 513 111T598 169T655 254T676 359ZM592 859Q566 827 538 815T494 802Q467 802 447 807T411 820T381 832T352 838Q329 838 316 827T286 800L249 859Q264 877 284 895T338 913Q358 913 376 908T412 895T447 883T480 877Q500 877 518 889T554 918L592 859H592Z"  />
<glyph unicode="&#xD6;" horiz-adv-x="818" d="M785 359Q785 281 756 212T675 92T556 12T410 -18Q332 -18 264 11T144 92T64 211T34 358Q34 436 63 504T144 622T263 702T410 732Q488 732 556 703T675 623T755 504T785 359ZM676 359Q676 414 655 462T598 546T514 603T410 624Q354 624 306 603T221 546T164 462T143 358Q143 302 164 254T221 169T305 111T410 90Q465 90 513 111T598 169T655 254T676 359ZM435 791V923H532V791H435ZM280 791V923H377V791H280Z"  />
<glyph unicode="&#xD7;" horiz-adv-x="590" d="M454 147L295 305L136 148L78 206L235 365L77 524L135 582L295 423L452 581L512 522L353 365L513 205L454 147Z"  />
<glyph unicode="&#xD8;" horiz-adv-x="818" d="M785 356Q785 285 758 218T681 98T561 15T406 -17Q341 -17 294 -1T204 45L130 -48L70 0L144 91Q87 148 61 217T34 355Q34 435 64 504T145 623T264 703T410 732Q473 732 521 714T614 671L687 762L749 713L675 622Q701 593 721 564T756 502T777 434T785 356ZM676 359Q676 404 659 451T606 537L274 128Q286 121 299 115T328 103T363 94T408 91Q462 91 511 111T596 168T654 253T676 359ZM544 585Q533 592 521 599T494 612T459 620T412 624Q350 624 300 601T215 541T162 455T143 355Q143 296 162 256T211 175L544 585Z"  />
<glyph unicode="&#xD9;" horiz-adv-x="704" d="M598 624V228Q598 172 580 127T530 49T452 0T351 -18Q298 -18 254 -1T177 48T126 127T108 234V624H23V714H290V624H215V245Q215 204 226 175T256 127T299 99T351 90Q379 90 404 99T448 127T479 175T491 245V624H415V714H681V624H598ZM396 771L191 881L236 951L434 830L396 771Z"  />
<glyph unicode="&#xDA;" horiz-adv-x="704" d="M598 624V228Q598 172 580 127T530 49T452 0T351 -18Q298 -18 254 -1T177 48T126 127T108 234V624H23V714H290V624H215V245Q215 204 226 175T256 127T299 99T351 90Q379 90 404 99T448 127T479 175T491 245V624H415V714H681V624H598ZM308 771L270 830L468 951L513 881L308 771Z"  />
<glyph unicode="&#xDB;" horiz-adv-x="704" d="M598 624V228Q598 172 580 127T530 49T452 0T351 -18Q298 -18 254 -1T177 48T126 127T108 234V624H23V714H290V624H215V245Q215 204 226 175T256 127T299 99T351 90Q379 90 404 99T448 127T479 175T491 245V624H415V714H681V624H598ZM431 778L352 860L273 778H168L318 937H386L536 778H431Z"  />
<glyph unicode="&#xDC;" horiz-adv-x="704" d="M598 624V228Q598 172 580 127T530 49T452 0T351 -18Q298 -18 254 -1T177 48T126 127T108 234V624H23V714H290V624H215V245Q215 204 226 175T256 127T299 99T351 90Q379 90 404 99T448 127T479 175T491 245V624H415V714H681V624H598ZM381 791V923H478V791H381ZM226 791V923H323V791H226Z"  />
<glyph unicode="&#xDD;" horiz-adv-x="645" d="M574 624L379 245V90H463V0H188V90H273V245L70 624H-7V714H256V624H181L326 338L467 624H389V714H652V624H574ZM278 771L240 830L438 951L483 881L278 771Z"  />
<glyph unicode="&#xDE;" horiz-adv-x="611" d="M590 405Q590 363 575 322T531 249T457 198T355 178H229V90H316V0H38V90H122V624H38V714H229V628H337Q398 628 445 611T525 564T573 494T590 405ZM481 401Q481 426 473 449T446 491T402 521T339 532H229V274H343Q379 274 405 285T448 314T473 354T481 401Z"  />
<glyph unicode="&#xDF;" horiz-adv-x="629" d="M599 188Q599 143 584 106T540 43T475 2T393 -13Q364 -13 339 -8T291 5V97Q308 87 327 80T375 73Q405 73 428 82T468 108T492 147T501 194Q501 221 491 244T460 285T408 313T333 324Q328 324 318 323T303 322V410H320Q347 410 368 419T405 443T429 479T438 524Q438 547 429 567T405 602T370 625T327 634Q292 634 265 615T224 565Q216 545 214 521T212 471V0H38V90H115V493Q115 550 133 594T181 668T250 714T332 730Q374 730 411 715T476 673T520 610T536 530Q536 479 513 440T445 381Q524 365 561 314T599 188Z"  />
<glyph unicode="&#xE0;" horiz-adv-x="707" d="M491 0V90Q458 45 414 17T299 -11Q243 -11 194 10T109 69T51 156T30 262Q30 317 51 368T108 457T195 518T303 541Q369 541 413 514T491 438V530H665V440H589V90H665V0H491ZM491 267Q491 304 477 336T439 393T381 431T309 445Q271 445 238 431T181 391T142 334T128 264Q128 227 142 195T180 138T237 99T308 85Q345 85 378 99T437 137T476 195T491 267ZM389 604L184 714L229 784L427 663L389 604Z"  />
<glyph unicode="&#xE1;" horiz-adv-x="707" d="M491 0V90Q458 45 414 17T299 -11Q243 -11 194 10T109 69T51 156T30 262Q30 317 51 368T108 457T195 518T303 541Q369 541 413 514T491 438V530H665V440H589V90H665V0H491ZM491 267Q491 304 477 336T439 393T381 431T309 445Q271 445 238 431T181 391T142 334T128 264Q128 227 142 195T180 138T237 99T308 85Q345 85 378 99T437 137T476 195T491 267ZM297 604L259 663L457 784L502 714L297 604Z"  />
<glyph unicode="&#xE2;" horiz-adv-x="707" d="M491 0V90Q458 45 414 17T299 -11Q243 -11 194 10T109 69T51 156T30 262Q30 317 51 368T108 457T195 518T303 541Q369 541 413 514T491 438V530H665V440H589V90H665V0H491ZM491 267Q491 304 477 336T439 393T381 431T309 445Q271 445 238 431T181 391T142 334T128 264Q128 227 142 195T180 138T237 99T308 85Q345 85 378 99T437 137T476 195T491 267ZM419 611L340 693L261 611H156L306 770H374L524 611H419Z"  />
<glyph unicode="&#xE3;" horiz-adv-x="707" d="M491 0V90Q458 45 414 17T299 -11Q243 -11 194 10T109 69T51 156T30 262Q30 317 51 368T108 457T195 518T303 541Q369 541 413 514T491 438V530H665V440H589V90H665V0H491ZM491 267Q491 304 477 336T439 393T381 431T309 445Q271 445 238 431T181 391T142 334T128 264Q128 227 142 195T180 138T237 99T308 85Q345 85 378 99T437 137T476 195T491 267ZM516 690Q490 658 462 646T418 633Q391 633 371 638T335 651T305 663T276 669Q253 669 240 658T210 631L173 690Q188 708 208 726T262 744Q282 744 300 739T336 726T371 714T404 708Q424 708 442 720T478 749L516 690H516Z"  />
<glyph unicode="&#xE4;" horiz-adv-x="707" d="M491 0V90Q458 45 414 17T299 -11Q243 -11 194 10T109 69T51 156T30 262Q30 317 51 368T108 457T195 518T303 541Q369 541 413 514T491 438V530H665V440H589V90H665V0H491ZM491 267Q491 304 477 336T439 393T381 431T309 445Q271 445 238 431T181 391T142 334T128 264Q128 227 142 195T180 138T237 99T308 85Q345 85 378 99T437 137T476 195T491 267ZM370 618V750H467V618H370ZM215 618V750H312V618H215Z"  />
<glyph unicode="&#xE5;" horiz-adv-x="707" d="M491 0V90Q458 45 414 17T299 -11Q243 -11 194 10T109 69T51 156T30 262Q30 317 51 368T108 457T195 518T303 541Q369 541 413 514T491 438V530H665V440H589V90H665V0H491ZM491 267Q491 304 477 336T439 393T381 431T309 445Q271 445 238 431T181 391T142 334T128 264Q128 227 142 195T180 138T237 99T308 85Q345 85 378 99T437 137T476 195T491 267ZM452 694Q452 671 444 651T420 616T385 592T341 583Q318 583 298 592T262 616T237 652T228 696Q228 719 237 739T261 775T297 798T341 807Q364 807 384 799T420 775T443 739T452 694ZM395 696Q395 719 379 734T341 749Q318 749 302 733T286 694Q286 671 302 656T341 641Q363 641 379 657T395 696Z"  />
<glyph unicode="&#xE6;" horiz-adv-x="1085" d="M1054 264Q1054 259 1053 249T1052 233H598Q605 191 622 161T664 111T718 82T777 72Q808 72 830 80T869 100T898 127T922 155H1034Q991 68 924 27T783 -15Q720 -15 673 13T590 96V0H493V99Q462 42 416 16T310 -11Q250 -11 199 10T110 69T51 158T30 267Q30 323 51 372T110 459T197 519T303 541Q367 541 412 516T493 441V530H590V434Q625 488 671 516T781 544Q835 544 884 523T971 465T1031 377T1054 264ZM956 308Q946 345 928 373T886 420T834 448T776 458Q714 458 666 420T598 308H956ZM504 268Q504 306 489 338T448 394T388 431T315 445Q276 445 242 431T183 393T143 337T128 267Q128 229 142 196T181 138T240 99T313 85Q352 85 386 99T447 137T488 195T504 268Z"  />
<glyph unicode="&#xE7;" horiz-adv-x="584" d="M570 173Q541 91 478 43T320 -15L303 -62Q315 -59 325 -59Q344 -59 359 -67T386 -87T402 -116T408 -150Q408 -192 381 -222T305 -253Q272 -253 244 -233T206 -171L267 -161Q272 -175 281 -182T307 -190Q324 -190 335 -179T347 -152Q347 -135 336 -124T307 -112Q285 -112 271 -128L227 -105L263 -10Q213 -2 171 22T97 84T48 167T30 265Q30 323 51 373T110 462T196 522T299 544Q350 544 391 525T468 469V530H550V362H462Q432 405 393 426T308 448Q270 448 238 434T181 395T142 337T128 264Q128 226 142 193T180 135T238 96T310 81Q359 81 399 104T463 173H570H570Z"  />
<glyph unicode="&#xE8;" horiz-adv-x="611" d="M581 262Q581 254 580 244T578 229H125Q133 188 152 158T195 109T249 81T308 72Q359 72 395 92T459 153H560Q523 72 456 29T309 -15Q253 -15 203 6T114 64T53 152T30 264Q30 323 52 374T111 463T199 522T305 544Q360 544 410 524T498 466T558 377T581 262ZM492 304Q483 343 464 371T420 419T365 448T305 458Q276 458 247 448T194 419T152 370T125 304H492ZM361 604L156 714L201 784L399 663L361 604Z"  />
<glyph unicode="&#xE9;" horiz-adv-x="611" d="M581 262Q581 254 580 244T578 229H125Q133 188 152 158T195 109T249 81T308 72Q359 72 395 92T459 153H560Q523 72 456 29T309 -15Q253 -15 203 6T114 64T53 152T30 264Q30 323 52 374T111 463T199 522T305 544Q360 544 410 524T498 466T558 377T581 262ZM492 304Q483 343 464 371T420 419T365 448T305 458Q276 458 247 448T194 419T152 370T125 304H492ZM269 604L231 663L429 784L474 714L269 604Z"  />
<glyph unicode="&#xEA;" horiz-adv-x="611" d="M581 262Q581 254 580 244T578 229H125Q133 188 152 158T195 109T249 81T308 72Q359 72 395 92T459 153H560Q523 72 456 29T309 -15Q253 -15 203 6T114 64T53 152T30 264Q30 323 52 374T111 463T199 522T305 544Q360 544 410 524T498 466T558 377T581 262ZM492 304Q483 343 464 371T420 419T365 448T305 458Q276 458 247 448T194 419T152 370T125 304H492ZM391 611L312 693L233 611H128L278 770H346L496 611H391Z"  />
<glyph unicode="&#xEB;" horiz-adv-x="611" d="M581 262Q581 254 580 244T578 229H125Q133 188 152 158T195 109T249 81T308 72Q359 72 395 92T459 153H560Q523 72 456 29T309 -15Q253 -15 203 6T114 64T53 152T30 264Q30 323 52 374T111 463T199 522T305 544Q360 544 410 524T498 466T558 377T581 262ZM492 304Q483 343 464 371T420 419T365 448T305 458Q276 458 247 448T194 419T152 370T125 304H492ZM342 618V750H439V618H342ZM187 618V750H284V618H187Z"  />
<glyph unicode="&#xEC;" horiz-adv-x="331" d="M41 0V90H119V440H41V530H216V90H293V0H41ZM216 604L11 714L56 784L254 663L216 604Z"  />
<glyph unicode="&#xED;" horiz-adv-x="331" d="M41 0V90H119V440H41V530H216V90H293V0H41ZM99 604L61 663L259 784L304 714L99 604Z"  />
<glyph unicode="&#xEE;" horiz-adv-x="331" d="M41 0V90H119V440H41V530H216V90H293V0H41ZM236 611L157 693L78 611H-27L123 770H191L341 611H236Z"  />
<glyph unicode="&#xEF;" horiz-adv-x="331" d="M41 0V90H119V440H41V530H216V90H293V0H41ZM186 618V750H283V618H186ZM31 618V750H128V618H31Z"  />
<glyph unicode="&#xF0;" horiz-adv-x="617" d="M587 287Q587 215 564 159T503 64T415 5T310 -15Q254 -15 203 6T114 64T53 153T30 264Q30 308 43 348T79 422T134 481T205 520Q233 530 254 532T305 534Q346 534 375 519T428 487Q408 519 379 552T291 618L167 558L133 607L221 651Q200 659 174 666T107 675L144 737Q202 732 240 720T309 693L438 754L475 705L376 658Q423 628 462 586T528 496T571 394T587 287ZM488 265Q488 303 474 336T436 394T379 433T309 448Q271 448 238 434T181 394T142 336T128 264Q128 226 142 193T180 135T238 96T309 81Q346 81 378 95T435 134T474 192T488 265Z"  />
<glyph unicode="&#xF1;" horiz-adv-x="685" d="M412 0V90H490V292Q490 333 479 362T448 409T405 436T353 445Q324 445 299 436T256 408T227 359T216 285V90H293V0H41V90H119V440H41V530H216V446Q243 494 285 517T381 541Q414 541 444 532T499 505T543 465T573 413Q582 389 584 366T587 322V90H664V0H412ZM507 690Q481 658 453 646T409 633Q382 633 362 638T326 651T296 663T267 669Q244 669 231 658T201 631L164 690Q179 708 199 726T253 744Q273 744 291 739T327 726T362 714T395 708Q415 708 433 720T469 749L507 690H507Z"  />
<glyph unicode="&#xF2;" horiz-adv-x="617" d="M587 267Q587 209 565 158T505 68T416 8T308 -15Q250 -15 200 7T112 67T52 155T30 264Q30 321 52 372T112 461T200 522T309 544Q367 544 417 522T505 463T565 375T587 267ZM488 265Q488 303 474 336T436 394T380 433T309 448Q271 448 238 434T181 394T142 336T128 264Q128 226 142 193T180 135T238 96T309 81Q346 81 378 95T435 135T474 193T488 265ZM364 604L159 714L204 784L402 663L364 604Z"  />
<glyph unicode="&#xF3;" horiz-adv-x="617" d="M587 267Q587 209 565 158T505 68T416 8T308 -15Q250 -15 200 7T112 67T52 155T30 264Q30 321 52 372T112 461T200 522T309 544Q367 544 417 522T505 463T565 375T587 267ZM488 265Q488 303 474 336T436 394T380 433T309 448Q271 448 238 434T181 394T142 336T128 264Q128 226 142 193T180 135T238 96T309 81Q346 81 378 95T435 135T474 193T488 265ZM261 604L223 663L421 784L466 714L261 604Z"  />
<glyph unicode="&#xF4;" horiz-adv-x="617" d="M587 267Q587 209 565 158T505 68T416 8T308 -15Q250 -15 200 7T112 67T52 155T30 264Q30 321 52 372T112 461T200 522T309 544Q367 544 417 522T505 463T565 375T587 267ZM488 265Q488 303 474 336T436 394T380 433T309 448Q271 448 238 434T181 394T142 336T128 264Q128 226 142 193T180 135T238 96T309 81Q346 81 378 95T435 135T474 193T488 265ZM391 611L312 693L233 611H128L278 770H346L496 611H391Z"  />
<glyph unicode="&#xF5;" horiz-adv-x="617" d="M587 267Q587 209 565 158T505 68T416 8T308 -15Q250 -15 200 7T112 67T52 155T30 264Q30 321 52 372T112 461T200 522T309 544Q367 544 417 522T505 463T565 375T587 267ZM488 265Q488 303 474 336T436 394T380 433T309 448Q271 448 238 434T181 394T142 336T128 264Q128 226 142 193T180 135T238 96T309 81Q346 81 378 95T435 135T474 193T488 265ZM488 690Q462 658 434 646T390 633Q363 633 343 638T307 651T277 663T248 669Q225 669 212 658T182 631L145 690Q160 708 180 726T234 744Q254 744 272 739T308 726T343 714T376 708Q396 708 414 720T450 749L488 690H488Z"  />
<glyph unicode="&#xF6;" horiz-adv-x="617" d="M587 267Q587 209 565 158T505 68T416 8T308 -15Q250 -15 200 7T112 67T52 155T30 264Q30 321 52 372T112 461T200 522T309 544Q367 544 417 522T505 463T565 375T587 267ZM488 265Q488 303 474 336T436 394T380 433T309 448Q271 448 238 434T181 394T142 336T128 264Q128 226 142 193T180 135T238 96T309 81Q346 81 378 95T435 135T474 193T488 265ZM342 618V750H439V618H342ZM187 618V750H284V618H187Z"  />
<glyph unicode="&#xF7;" horiz-adv-x="590" d="M246 469V589H343V469H246ZM42 324V405H548V324H42ZM246 139V259H343V139H246Z"  />
<glyph unicode="&#xF8;" horiz-adv-x="617" d="M587 270Q587 214 566 163T508 72T420 9T307 -15Q261 -15 231 -5T176 19L122 -55L65 -12L119 62Q75 107 53 154T30 264Q30 319 51 369T110 459T200 521T313 544Q354 544 385 533T446 507L501 582L559 538L503 464Q545 423 566 374T587 270ZM488 264Q488 305 477 333T444 384L234 97Q251 92 270 87T311 81Q346 81 378 94T434 132T473 190T488 264ZM388 430Q374 437 356 442T311 448Q267 448 233 432T176 391T140 333T128 270Q128 227 141 196T176 139L388 430Z"  />
<glyph unicode="&#xF9;" horiz-adv-x="676" d="M468 0V78Q437 32 393 11T299 -11Q260 -11 224 3T160 44T115 111T98 202V440H21V530H195V233Q195 194 206 166T235 120T277 94T326 85Q350 85 374 93T417 118T449 164T461 234V440H383V530H558V90H635V0H468ZM365 604L160 714L205 784L403 663L365 604Z"  />
<glyph unicode="&#xFA;" horiz-adv-x="676" d="M468 0V78Q437 32 393 11T299 -11Q260 -11 224 3T160 44T115 111T98 202V440H21V530H195V233Q195 194 206 166T235 120T277 94T326 85Q350 85 374 93T417 118T449 164T461 234V440H383V530H558V90H635V0H468ZM277 604L239 663L437 784L482 714L277 604Z"  />
<glyph unicode="&#xFB;" horiz-adv-x="676" d="M468 0V78Q437 32 393 11T299 -11Q260 -11 224 3T160 44T115 111T98 202V440H21V530H195V233Q195 194 206 166T235 120T277 94T326 85Q350 85 374 93T417 118T449 164T461 234V440H383V530H558V90H635V0H468ZM399 611L320 693L241 611H136L286 770H354L504 611H399Z"  />
<glyph unicode="&#xFC;" horiz-adv-x="676" d="M468 0V78Q437 32 393 11T299 -11Q260 -11 224 3T160 44T115 111T98 202V440H21V530H195V233Q195 194 206 166T235 120T277 94T326 85Q350 85 374 93T417 118T449 164T461 234V440H383V530H558V90H635V0H468ZM350 618V750H447V618H350ZM195 618V750H292V618H195Z"  />
<glyph unicode="&#xFD;" horiz-adv-x="589" d="M524 440L297 -105H373V-195H121V-105H196L240 2L67 440H-7V530H239V440H173L292 124L418 440H353V530H596V440H524ZM251 604L213 663L411 784L456 714L251 604Z"  />
<glyph unicode="&#xFE;" horiz-adv-x="707" d="M678 264Q678 208 657 159T600 71T515 11T411 -11Q338 -11 292 17T212 93V-102H290V-191H38V-102H115V624H38V714H212V431Q246 486 293 513T405 541Q462 541 511 519T598 459T656 371T678 264ZM579 268Q579 305 565 337T526 394T468 431T395 445Q357 445 324 432T266 395T226 339T211 267Q211 227 226 194T266 136T325 99T395 85Q433 85 466 99T525 138T564 196T579 268Z"  />
<glyph unicode="&#xFF;" horiz-adv-x="589" d="M524 440L297 -105H373V-195H121V-105H196L240 2L67 440H-7V530H239V440H173L292 124L418 440H353V530H596V440H524ZM323 618V750H420V618H323ZM168 618V750H265V618H168Z"  />
<glyph unicode="&#x131;" horiz-adv-x="331" d="M41 0V90H119V440H41V530H216V90H293V0H41Z"  />
<glyph unicode="&#x152;" horiz-adv-x="1137" d="M669 0V139Q622 60 557 21T402 -18Q326 -18 259 11T142 92T63 211T34 359Q34 437 64 505T144 624T261 703T402 732Q496 732 559 692T669 576V714H1102V516H995V618H776V404H1005V319H776V96H995V201H1102V0H669ZM662 358Q662 413 642 461T587 546T505 603T402 624Q348 624 301 603T218 545T163 460T143 356Q143 302 163 254T218 169T301 111T402 90Q456 90 503 111T586 168T642 254T662 358Z"  />
<glyph unicode="&#x153;" horiz-adv-x="1090" d="M1059 270Q1059 261 1059 250T1057 231H598Q604 192 621 163T662 113T715 82T777 72Q825 72 862 94T930 158H1039Q998 70 929 28T777 -15Q705 -15 645 17T547 116Q509 51 446 18T314 -15Q256 -15 205 6T114 66T53 155T30 265Q30 322 52 373T112 462T202 522T313 544Q356 544 396 531T471 494Q504 472 519 451T547 411Q624 544 778 544Q836 544 887 522T977 462T1037 375T1059 270ZM955 307Q932 383 886 420T777 458Q747 458 719 449T668 420T627 373T600 307H955ZM501 265Q501 303 486 336T446 394T386 433T314 448Q275 448 242 434T183 394T143 336T128 264Q128 226 142 193T182 134T242 95T314 81Q352 81 386 95T445 134T486 192T501 265Z"  />
<glyph unicode="&#x160;" horiz-adv-x="534" d="M499 199Q499 152 482 113T435 44T365 -2T278 -19Q228 -19 192 -1T127 55V0H41V204H139Q143 139 178 108T267 76Q323 76 356 110T390 194Q390 229 376 251T336 287T275 312T199 333Q164 343 134 361T82 404T48 460T35 527Q35 571 52 608T97 673T164 716T247 732Q339 732 384 663V714H467V531H371Q367 585 335 613T258 641Q206 641 175 610T144 532Q144 491 163 469T212 434T276 414T343 395Q499 340 499 199ZM298 778H230L80 937H185L264 854L343 937H448L298 778Z"  />
<glyph unicode="&#x161;" horiz-adv-x="462" d="M429 150Q429 117 416 88T379 36T322 2T248 -11Q200 -11 167 5T108 53V0H35V155H132Q147 64 235 64Q277 64 301 86T326 143Q326 196 264 213Q221 225 181 236T110 266T59 312T40 387Q40 418 52 446T86 495T140 528T210 541Q259 541 285 526T330 490V530H402V390H308Q304 428 282 446T224 465Q188 465 166 445T143 393Q143 365 160 348T205 324Q246 313 286 303T358 275T409 228T429 150ZM266 611H198L48 770H153L232 687L311 770H416L266 611Z"  />
<glyph unicode="&#x178;" horiz-adv-x="645" d="M574 624L379 245V90H463V0H188V90H273V245L70 624H-7V714H256V624H181L326 338L467 624H389V714H652V624H574ZM355 791V923H452V791H355ZM200 791V923H297V791H200Z"  />
<glyph unicode="&#x17D;" horiz-adv-x="571" d="M34 0V85L387 618H145V511H48V714H518V631L162 96H439V202H536V0H34ZM316 778H248L98 937H203L282 854L361 937H466L316 778Z"  />
<glyph unicode="&#x17E;" horiz-adv-x="474" d="M27 0V79L311 440H127V359H41V530H431V442L158 90H362V167H445V0H27ZM271 611H203L53 770H158L237 687L316 770H421L271 611Z"  />
<glyph unicode="&#x192;" horiz-adv-x="590" d="M509 714Q470 712 448 699T413 664T396 618T387 567L373 496H452L439 416H360L296 57Q287 6 270 -31T224 -93T158 -131T67 -147L82 -61Q116 -60 137 -50T170 -23T189 14T199 57L262 416H184L199 496H276L288 567Q296 615 308 656T346 727T414 777T524 800L509 714Z"  />
<glyph unicode="&#x2C6;" horiz-adv-x="536" d="M347 611L268 693L189 611H84L234 770H302L452 611H347Z"  />
<glyph unicode="&#x2C7;" horiz-adv-x="536" d="M302 611H234L84 770H189L268 687L347 770H452L302 611Z"  />
<glyph unicode="&#x2DA;" horiz-adv-x="536" d="M379 694Q379 671 371 651T347 616T312 592T268 583Q245 583 225 592T189 616T164 652T155 696Q155 719 164 739T188 775T224 798T268 807Q291 807 311 799T347 775T370 739T379 694ZM322 696Q322 719 306 734T268 749Q245 749 229 733T213 694Q213 671 229 656T268 641Q290 641 306 657T322 696Z"  />
<glyph unicode="&#x2DC;" horiz-adv-x="536" d="M439 690Q413 658 385 646T341 633Q314 633 294 638T258 651T228 663T199 669Q176 669 163 658T133 631L96 690Q111 708 131 726T185 744Q205 744 223 739T259 726T294 714T327 708Q347 708 365 720T401 749L439 690H439Z"  />
<glyph unicode="&#x2013;" horiz-adv-x="590" d="M62 227V322H528V227H62Z"  />
<glyph unicode="&#x2014;" horiz-adv-x="797" d="M0 227V322H797V227H0Z"  />
<glyph unicode="&#x2018;" horiz-adv-x="215" d="M57 465V621Q57 666 75 693T132 721H158V661H148Q128 661 122 648T115 612V591H158V465H57Z"  />
<glyph unicode="&#x2019;" horiz-adv-x="215" d="M158 559Q158 513 139 486T81 458H57V519H67Q85 519 92 532T99 567V588H57V714H158V559H158Z"  />
<glyph unicode="&#x201A;" horiz-adv-x="215" d="M158 -29Q158 -75 139 -103T81 -131H57V-68H67Q85 -68 92 -56T99 -21V0H57V126H158V-29H158Z"  />
<glyph unicode="&#x201C;" horiz-adv-x="367" d="M211 465V621Q211 666 229 693T285 721H308V661H299Q280 661 274 647T267 612V591H308V465H211ZM57 465V621Q57 666 75 693T132 721H158V661H148Q128 661 122 648T115 612V591H158V465H57Z"  />
<glyph unicode="&#x201D;" horiz-adv-x="367" d="M308 559Q308 513 290 486T234 458H211V519H219Q239 519 245 532T252 567V588H211V714H308V559ZM158 559Q158 513 139 486T81 458H57V519H67Q85 519 92 532T99 567V588H57V714H158V559Z"  />
<glyph unicode="&#x201E;" horiz-adv-x="367" d="M308 -29Q308 -75 290 -103T234 -131H211V-68H219Q238 -68 245 -56T252 -21V0H211V126H308V-29ZM158 -29Q158 -75 139 -103T81 -131H57V-68Q58 -68 61 -68T67 -69Q85 -69 92 -56T99 -21V0H57V126H158V-29Z"  />
<glyph unicode="&#x2020;" horiz-adv-x="590" d="M345 411V-193H245V411H41V501H245V714H345V501H549V411H345Z"  />
<glyph unicode="&#x2021;" horiz-adv-x="590" d="M345 23V-193H245V23H41V113H245V411H41V501H245V714H345V501H549V411H345V113H549V23H345Z"  />
<glyph unicode="&#x2022;" horiz-adv-x="107" d="M0 288V440H107V288H0Z"  />
<glyph unicode="&#x2026;" horiz-adv-x="642" d="M485 0V126H585V0H485ZM273 0V126H370V0H273ZM57 0V126H158V0H57Z"  />
<glyph unicode="&#x2030;" horiz-adv-x="1324" d="M1291 158Q1291 113 1277 82T1239 30T1187 1T1127 -8Q1097 -8 1068 1T1016 30T979 81T965 158V270Q965 315 979 347T1016 399T1068 428T1127 438Q1157 438 1186 429T1238 399T1276 347T1291 270V158ZM898 158Q898 113 884 82T846 30T794 1T734 -8Q704 -8 675 1T623 30T586 81T572 158V270Q572 315 586 347T623 399T675 428T734 438Q764 438 793 429T845 399T883 347T898 270V158ZM342 0H271L591 714H661L342 0ZM360 444Q360 399 346 368T308 316T255 287T196 278Q167 278 138 287T86 316T49 367T34 444V556Q34 601 48 632T85 684T137 713T196 722Q226 722 255 713T307 684T345 633T360 556V444ZM1218 270Q1218 375 1127 375Q1037 375 1037 270V158Q1037 105 1060 80T1127 55Q1218 55 1218 158V270ZM825 270Q825 375 734 375Q645 375 645 270V158Q645 55 734 55Q779 55 802 79T825 158V270ZM287 556Q287 659 196 659Q107 659 107 556V444Q107 390 129 366T196 341Q241 341 264 365T287 444V556Z"  />
<glyph unicode="&#x2039;" horiz-adv-x="215" d="M159 84L39 240V310L159 465L168 377L95 271L168 167L159 84Z"  />
<glyph unicode="&#x203A;" horiz-adv-x="215" d="M56 84L46 167L119 271L46 377L56 465L176 310V240L56 84Z"  />
<glyph unicode="&#x20AC;" horiz-adv-x="590" d="M566 190Q559 147 539 110T489 45T417 1T328 -15Q280 -15 238 -1T162 44T108 122T83 234H6V305H82V413H6V484H83Q87 547 109 593T164 669T241 715T333 730Q381 730 419 712T477 664V711H558V511H470Q459 562 425 598T330 634Q294 634 268 622T224 590T196 543T183 484H401V413H182V305H401V234H183Q189 166 225 124T332 81Q392 81 425 112T470 190H566Z"  />
<glyph unicode="&#x2122;" horiz-adv-x="908" d="M711 305V366H759V613L627 305H578L456 611V366H503V305H347V366H394V657H347V714H482L604 412L733 714H873V657H825V366H873V305H711ZM273 589V653H210V366H257V305H95V366H142V653H78V589H22V714H328V589H273Z"  />

</font>
</defs>
</svg>
